<?xml version="1.0" encoding="UTF-8" standalone="no"?>
<svg
   xmlns:osb="http://www.openswatchbook.org/uri/2009/osb"
   xmlns:dc="http://purl.org/dc/elements/1.1/"
   xmlns:cc="http://creativecommons.org/ns#"
   xmlns:rdf="http://www.w3.org/1999/02/22-rdf-syntax-ns#"
   xmlns:svg="http://www.w3.org/2000/svg"
   xmlns="http://www.w3.org/2000/svg"
   viewBox="0 0 190 49.999998"
   height="50"
   width="190"
   version="1.1"
   id="svg3336">
  <metadata
     id="metadata3342">
    <rdf:RDF>
      <cc:Work
         rdf:about="">
        <dc:format>image/svg+xml</dc:format>
        <dc:type
           rdf:resource="http://purl.org/dc/dcmitype/StillImage" />
        <dc:title></dc:title>
      </cc:Work>
    </rdf:RDF>
  </metadata>
  <defs
     id="defs3340">
    <linearGradient
       osb:paint="solid"
       id="linearGradient5690">
      <stop
         id="stop5692"
         offset="0"
         style="stop-color:#ffffff;stop-opacity:1;" />
    </linearGradient>
  </defs>
  <text
     id="text5110"
     y="-167.22212"
     x="-108.60311"
     style="font-style:normal;font-weight:normal;font-size:40px;line-height:125%;font-family:sans-serif;letter-spacing:0px;word-spacing:0px;fill:#000000;fill-opacity:1;stroke:none;stroke-width:1px;stroke-linecap:butt;stroke-linejoin:miter;stroke-opacity:1"
     xml:space="preserve"><tspan
       y="-167.22212"
       x="-108.60311"
       id="tspan5112" /></text>
  <g
     id="g5205"
     transform="translate(497.83264,-196.97612)">
    <g
       transform="translate(-1.9566853,-0.6191492)"
       id="g3546">
      <path
         id="path3346-1-8-4-4"
         d="m -461.78508,200.18852 0,1.13057 2.17415,1.39147 1.0436,3.21775 0.95662,0.34789 0.52182,-0.2609 1.04358,0.9566 0.95663,-0.087 0.7827,1.65236 0.78271,0 2.69596,1.21752 0.43483,0.60877 0.43485,-0.087 1.56539,-0.78271 0.52181,0.5218 1.04359,2.52202 2.08722,1.73933 0.86965,0.087 3.56564,2.43505 2.3481,0.95664 0.86966,-0.2609 1.91326,1.82629 -0.34787,0.69574 0.17392,0.26091 -0.86966,0.78269 0.43484,1.47843 -0.2609,0.26091 0.60877,1.47842 0.087,1.21754 -0.95662,1.13056 0,1.21753 -0.95664,0.86969 0,0.69572 -0.78271,0.95662 0.26091,0.86968 0.34786,1.13057 0.17394,0.52178 -2.78292,3.3917 -0.7827,0.60878 -1.13057,-0.69574 -1.82628,-0.17395 -0.7827,-0.43481 -3.73959,-0.86966 -1.91326,-1.30451 -0.60878,0.17393 -1.2175,-1.21752 -3.82655,-1.39148 -0.17394,-0.5218 -1.21753,0.17394 -2.43504,-1.39145 -1.13058,0.43482 -2.78291,-1.82631 -0.78271,-1.39144 -0.86965,0 -1.13058,-1.30451 -0.087,-0.7827 -0.69575,-0.34786 0.52181,-1.30452 0.087,-1.39145 0.52178,-3.47867 -1.04361,-3.73957 0.86969,-4.60923 2.34809,-5.30496 0.34786,-3.04382 z"
         style="fill:#ffffff;fill-opacity:1;fill-rule:evenodd;stroke:#000000;stroke-width:1.74001431;stroke-linecap:square;stroke-linejoin:miter;stroke-miterlimit:3.79999995;stroke-dasharray:none;stroke-opacity:1" />
      <g
         id="flowRoot3420"
         style="font-style:normal;font-variant:normal;font-weight:normal;font-stretch:normal;font-size:32.5px;line-height:125%;font-family:Sans;-inkscape-font-specification:Hack;letter-spacing:0px;word-spacing:0px;fill:#000000;fill-opacity:1;stroke:none;stroke-width:1px;stroke-linecap:butt;stroke-linejoin:miter;stroke-opacity:1"
         transform="matrix(1,0,0,-1,0,373.80749)">
        <path
           id="path3581"
           style="font-style:normal;font-variant:normal;font-weight:normal;font-stretch:normal;font-size:32.5px;font-family:Hack;-inkscape-font-specification:Hack"
           d="m -430.05103,145.04156 6.60157,0 q 3.90381,0 5.98266,1.76148 1.04737,0.88867 1.55518,2.1582 0.52368,1.26953 0.52368,2.87232 0,1.25366 -0.31738,2.20581 -0.31739,0.93628 -0.95215,1.68213 -1.26953,1.4917 -3.6023,1.82495 0.63477,0.15869 1.17432,0.47607 0.53955,0.30152 0.93628,0.71411 0.44434,0.46021 0.95215,1.30127 0.52368,0.8252 1.22192,2.22168 l 3.22144,6.47461 -3.44361,0 -2.8247,-5.98266 q -0.6189,-1.31714 -1.17432,-2.12647 -0.53955,-0.80933 -1.01562,-1.17432 -0.49195,-0.38086 -1.15845,-0.55542 -0.65064,-0.17456 -1.39649,-0.17456 l -3.06274,0 0,10.01343 -3.22144,0 0,-23.69263 z m 6.72852,11.04493 q 2.30103,0 3.42773,-1.0315 0.55542,-0.50781 0.84107,-1.30127 0.28564,-0.79345 0.28564,-1.82495 0,-1.03149 -0.30151,-1.82495 -0.28564,-0.79346 -0.88867,-1.34888 -0.57129,-0.50781 -1.44409,-0.79345 -0.85694,-0.28565 -2.04712,-0.28565 l -3.38013,0 0,8.41065 3.50708,0 z" />
        <path
           id="path3583"
           style="font-style:normal;font-variant:normal;font-weight:normal;font-stretch:normal;font-size:32.5px;font-family:Hack;-inkscape-font-specification:Hack"
           d="m -410.56372,145.04156 4.0625,0 7.99805,19.50318 0,-19.50318 3.09448,0 0,23.69263 -4.0625,0 -7.99805,-19.50317 0,19.50317 -3.09448,0 0,-23.69263 z" />
        <path
           id="path3585"
           style="font-style:normal;font-variant:normal;font-weight:normal;font-stretch:normal;font-size:32.5px;font-family:Hack;-inkscape-font-specification:Hack"
           d="m -391.04468,145.04156 3.22144,0 0,9.71192 8.77563,0 0,-9.71192 3.22144,0 0,23.69263 -3.22144,0 0,-11.28296 -8.77563,0 0,11.28296 -3.22144,0 0,-23.69263 z" />
        <path
           id="path3587"
           style="font-style:normal;font-variant:normal;font-weight:normal;font-stretch:normal;font-size:32.5px;font-family:Hack;-inkscape-font-specification:Hack"
           d="m -342.34229,169.1944 q -2.22167,0 -4.01489,-0.79346 -1.77734,-0.79346 -3.04687,-2.42798 -1.25366,-1.61865 -1.88843,-3.88794 -0.6189,-2.28515 -0.6189,-5.15747 0,-2.87231 0.6189,-5.15747 0.63477,-2.28516 1.9043,-3.91968 1.26953,-1.63452 3.04687,-2.42798 1.77735,-0.80932 3.99902,-0.80932 0.76172,0 1.45997,0.0952 0.71411,0.0793 1.2854,0.22217 0.57129,0.14282 1.25366,0.4126 0.68237,0.2539 1.25366,0.57129 l 0,3.28491 q -1.15845,-0.96802 -2.52319,-1.47583 -0.68238,-0.25391 -1.36475,-0.38086 -0.6665,-0.12695 -1.38061,-0.12695 -1.53931,0 -2.71363,0.60302 -1.15844,0.60303 -1.93603,1.80909 -1.55518,2.41211 -1.55518,7.28393 0,4.85596 1.55518,7.26807 1.55517,2.41211 4.68139,2.41211 0.71412,0 1.38062,-0.12696 0.68237,-0.12695 1.36475,-0.38085 1.31713,-0.49195 2.49145,-1.47584 l 0,3.28492 q -1.23779,0.65063 -2.50732,0.98388 -0.6189,0.1587 -1.33301,0.23804 -0.69824,0.0794 -1.41236,0.0794 z" />
        <path
           id="path3589"
           style="font-style:normal;font-variant:normal;font-weight:normal;font-stretch:normal;font-size:32.5px;font-family:Hack;-inkscape-font-specification:Hack"
           d="m -332.39233,145.04156 3.22143,0 0,10.53711 10.01343,-10.53711 3.76099,0 -9.21998,9.68018 9.48975,14.01245 -3.87207,0 -7.72827,-11.87012 -2.44385,2.60254 0,9.26758 -3.22143,0 0,-23.69263 z" />
      </g>
      <g
         id="text3469"
         style="font-style:normal;font-variant:normal;font-weight:normal;font-stretch:normal;font-size:32.5px;line-height:125%;font-family:Hack;-inkscape-font-specification:Hack;letter-spacing:0px;word-spacing:0px;fill:#000000;fill-opacity:1;stroke:none;stroke-width:1px;stroke-linecap:butt;stroke-linejoin:miter;stroke-opacity:1">
        <path
           id="path3592"
           style=""
           d="m -486.62521,205.05743 7.01416,0 q 3.61816,0 5.6018,1.57105 1.96778,1.57104 1.96778,4.45923 0,1.11084 -0.26978,1.96777 -0.26977,0.84107 -0.76172,1.44409 -0.50781,0.60303 -1.2854,1.01563 -0.77759,0.39673 -1.84082,0.55542 2.34863,0.36499 3.66577,1.98364 0.65064,0.80933 0.98389,1.85669 0.33325,1.04736 0.33325,2.34863 0,3.20557 -2.11059,4.84009 -2.12647,1.65039 -6.28418,1.65039 l -7.01416,0 0,-23.69263 z m 6.95068,9.77539 q 1.20605,0 2.01538,-0.22216 0.8252,-0.22217 1.34888,-0.68238 1.03149,-0.88867 1.03149,-2.80883 0,-0.95215 -0.2539,-1.58692 -0.25391,-0.65063 -0.76172,-1.04736 -1.0315,-0.79346 -3.38013,-0.79346 l -3.72925,0 0,7.14111 3.72925,0 z m 0.0635,11.28296 q 2.7771,0 3.98315,-0.98388 1.19019,-0.96802 1.19019,-3.20557 0,-2.31689 -1.25367,-3.41186 -1.26953,-1.07911 -3.91967,-1.07911 l -3.79273,0 0,8.68042 3.79273,0 z" />
      </g>
      <g
         id="text3442"
         style="font-style:normal;font-variant:normal;font-weight:normal;font-stretch:normal;font-size:14.0328207px;line-height:125%;font-family:Hack;-inkscape-font-specification:Hack;letter-spacing:0px;word-spacing:0px;fill:#000000;fill-opacity:1;stroke:none;stroke-width:1px;stroke-linecap:butt;stroke-linejoin:miter;stroke-opacity:1">
        <path
           id="path3595"
           style=""
           d="m -430.56172,241.10984 2.14466,0 0,-7.90031 -2.14466,0 0,-1.16484 5.68028,0 0,1.16484 -2.14467,0 0,7.90031 2.14467,0 0,1.16483 -5.68028,0 0,-1.16483 z" />
        <path
           id="path3597"
           style=""
           d="m -422.16121,234.60047 1.13742,0 0.12334,1.15113 q 0.3426,-0.66464 0.91131,-1.00038 0.56871,-0.33575 1.35669,-0.33575 0.61667,0 1.04835,0.19871 0.43167,0.19871 0.7126,0.56871 0.57557,0.77427 0.57557,2.33652 l 0,4.75526 -1.26762,0 0,-4.75526 q 0,-1.03465 -0.36315,-1.52113 -0.36315,-0.48649 -1.14428,-0.48649 -0.45223,0 -0.78797,0.15759 -0.3289,0.1576 -0.56186,0.46593 -0.47964,0.62353 -0.47964,1.80207 l 0,4.33729 -1.26076,0 0,-7.6742 z" />
        <path
           id="path3599"
           style=""
           d="m -411.47215,233.20953 q -0.20556,0 -0.20556,-0.20556 l 0,-1.18539 q 0,-0.20556 0.20556,-0.20556 l 0.98668,0 q 0.20556,0 0.20556,0.20556 l 0,1.18539 q 0,0.20556 -0.20556,0.20556 l -0.98668,0 z m 2.30226,9.11996 q -0.54816,0 -0.98668,-0.1713 -0.43168,-0.1713 -0.76057,-0.55501 -0.62353,-0.72631 -0.62353,-2.05559 l 0,-3.96043 -1.67873,0 0,-0.98669 2.93949,0 0,4.94712 q 0,0.8565 0.31519,1.28132 0.16445,0.22611 0.39056,0.32889 0.23297,0.10278 0.5276,0.10278 l 1.47318,0 0,1.06891 -1.59651,0 z" />
        <path
           id="path3601"
           style=""
           d="m -401.08457,242.30208 q -1.41151,0 -2.00078,-0.56871 -0.58241,-0.56186 -0.58241,-1.95966 l 0,-4.1934 -2.04874,0 0,-0.97984 2.04874,0 0,-2.00762 1.26076,-0.54816 0,2.55578 2.86412,0 0,0.97984 -2.86412,0 0,4.1934 q 0,0.84279 0.32204,1.18539 0.31519,0.33574 1.12372,0.33574 l 1.41836,0 0,1.00724 -1.54169,0 0,0 z" />
        <path
           id="path3603"
           style=""
           d="m -394.58891,233.20953 q -0.20556,0 -0.20556,-0.20556 l 0,-1.18539 q 0,-0.20556 0.20556,-0.20556 l 0.98668,0 q 0.20556,0 0.20556,0.20556 l 0,1.18539 q 0,0.20556 -0.20556,0.20556 l -0.98668,0 z m 2.30226,9.11996 q -0.54816,0 -0.98669,-0.1713 -0.43167,-0.1713 -0.76056,-0.55501 -0.62353,-0.72631 -0.62353,-2.05559 l 0,-3.96043 -1.67873,0 0,-0.98669 2.93949,0 0,4.94712 q 0,0.8565 0.31519,1.28132 0.16445,0.22611 0.39056,0.32889 0.23297,0.10278 0.5276,0.10278 l 1.47317,0 0,1.06891 -1.5965,0 z" />
        <path
           id="path3605"
           style=""
           d="m -386.21581,242.47338 q -1.19224,0 -1.88429,-0.66464 -0.3289,-0.31519 -0.5139,-0.74001 -0.185,-0.43168 -0.185,-1.03465 0,-1.26761 0.86335,-1.9391 0.84964,-0.66464 2.52152,-0.66464 l 1.69243,0 0,-0.19871 q 0,-0.43853 -0.11648,-0.78113 -0.11648,-0.34259 -0.34945,-0.555 -0.22612,-0.20556 -0.59612,-0.30834 -0.37001,-0.10278 -0.86335,-0.10278 -0.65094,0 -1.30872,0.185 -0.66464,0.185 -1.28132,0.54131 l 0,-1.26077 q 0.28778,-0.10963 0.63723,-0.21926 0.34945,-0.10963 0.70575,-0.185 0.62353,-0.13019 1.25391,-0.13019 0.48649,0 0.88391,0.0754 0.39741,0.0685 0.74001,0.21241 0.31519,0.13704 0.59612,0.34945 0.28778,0.20556 0.48649,0.47964 0.14389,0.19871 0.23296,0.41797 0.0891,0.21926 0.13704,0.43168 0.10964,0.50019 0.10964,1.51428 l 0,1.5691 q 0.0137,0.39741 0.0205,0.6989 0.007,0.30149 0.0411,0.56186 0.0343,0.28778 0.0754,0.5413 0.048,0.25353 0.0822,0.38371 0.048,0.21242 0.10963,0.40427 0.0617,0.185 0.0754,0.21926 l -1.26761,0 q -0.0343,-0.0822 -0.0891,-0.23982 -0.048,-0.16444 -0.0959,-0.3563 -0.0343,-0.15074 -0.0685,-0.30148 -0.0274,-0.1576 -0.0411,-0.26723 -0.1987,0.3426 -0.51389,0.60982 -0.30834,0.26723 -0.60983,0.42483 -0.32889,0.1713 -0.6989,0.24667 -0.36315,0.0822 -0.78112,0.0822 z m 0.26037,-1.0552 q 1.03465,0 1.63077,-0.72631 0.60297,-0.74001 0.60297,-1.99392 l 0,-0.28093 -1.5965,0 q -1.09632,0 -1.65818,0.38371 -0.29463,0.19871 -0.43167,0.49334 -0.13019,0.28778 -0.13019,0.67149 0,0.3563 0.10963,0.62353 0.10963,0.26038 0.30834,0.44538 0.19871,0.17815 0.47964,0.28093 0.28778,0.10278 0.68519,0.10278 z" />
        <path
           id="path3607"
           style=""
           d="m -375.66379,242.32949 q -0.54816,0 -0.98668,-0.1713 -0.43168,-0.1713 -0.76057,-0.55501 -0.62353,-0.72631 -0.62353,-2.05559 l 0,-6.94789 -2.02133,0 0,-0.98668 3.28209,0 0,7.93457 q 0,0.8565 0.31519,1.28132 0.16445,0.22611 0.39056,0.32889 0.23297,0.10278 0.5276,0.10278 l 1.47318,0 0,1.06891 -1.59651,0 0,0 z" />
        <path
           id="path3609"
           style=""
           d="m -359.52742,242.47338 q -0.85649,0 -1.56224,-0.26723 -0.6989,-0.27407 -1.19224,-0.80168 -0.5002,-0.53445 -0.75372,-1.27446 -0.24667,-0.74687 -0.24667,-1.68558 0,-0.97983 0.26037,-1.71985 0.26723,-0.74001 0.74687,-1.24705 0.50704,-0.53446 1.19909,-0.79483 0.6989,-0.26723 1.5554,-0.26723 0.31519,0 0.58241,0.0343 0.26723,0.0343 0.5276,0.10963 0.52075,0.14389 1.06206,0.44538 l 0,1.32243 q -0.25352,-0.21926 -0.50019,-0.38371 -0.24668,-0.16445 -0.5002,-0.26038 -0.5139,-0.1987 -1.13742,-0.1987 -1.19225,0 -1.82948,0.76742 -0.63723,0.77427 -0.63723,2.18577 0,0.65779 0.14389,1.21965 0.15074,0.56186 0.49334,0.97298 0.64409,0.77427 1.85003,0.77427 0.3426,0 0.62353,-0.0548 0.28778,-0.0548 0.5276,-0.15074 0.30834,-0.11649 0.5276,-0.26723 0.22612,-0.1576 0.43853,-0.3563 l 0,1.30872 q -0.23297,0.13704 -0.50705,0.25352 -0.27408,0.11649 -0.53445,0.19186 -0.23982,0.0685 -0.5276,0.10278 -0.28093,0.0411 -0.60983,0.0411 z" />
        <path
           id="path3611"
           style=""
           d="m -351.74358,242.47338 q -0.78798,0 -1.40466,-0.25352 -0.60982,-0.26038 -1.03464,-0.77427 -0.43168,-0.53446 -0.63724,-1.28817 -0.20555,-0.76057 -0.20555,-1.71985 0,-1.94595 0.84279,-2.98745 0.84279,-1.03465 2.4393,-1.03465 0.82223,0 1.4252,0.26723 0.60983,0.26037 1.02095,0.76742 0.84279,1.0415 0.84279,2.9806 0,0.97983 -0.21241,1.7404 -0.20556,0.76057 -0.63038,1.27447 -0.41112,0.50704 -1.0278,0.76742 -0.60982,0.26037 -1.41835,0.26037 z m 0,-1.06891 q 0.96612,0 1.45946,-0.75371 0.49335,-0.74687 0.49335,-2.20633 0,-1.45947 -0.49335,-2.21319 -0.49334,-0.74686 -1.45946,-0.74686 -0.95928,0 -1.45262,0.74686 -0.49334,0.75372 -0.49334,2.21319 0,1.45946 0.49334,2.20633 0.49334,0.75371 1.45262,0.75371 z" />
        <path
           id="path3613"
           style=""
           d="m -346.77591,234.60047 1.03465,0 0.10963,0.65779 q 0.22611,-0.41111 0.56871,-0.63038 0.33575,-0.21241 0.77427,-0.21241 0.50705,0 0.86335,0.23982 0.33575,0.23297 0.53445,0.72631 0.23982,-0.50019 0.59612,-0.73316 0.35631,-0.23297 0.86335,-0.23297 0.47279,0 0.80168,0.185 0.3289,0.17816 0.50705,0.52761 0.37685,0.7126 0.37685,2.69967 l 0,4.44692 -1.15113,0 0,-4.3921 q 0,-0.43853 -0.0137,-0.76742 -0.007,-0.3289 -0.0343,-0.56872 -0.0206,-0.24667 -0.0548,-0.41112 -0.0343,-0.17129 -0.0822,-0.27407 -0.0754,-0.17816 -0.23297,-0.28093 -0.15759,-0.10964 -0.44537,-0.10964 -0.26038,0 -0.43853,0.10278 -0.17815,0.0959 -0.28093,0.31519 -0.11648,0.23982 -0.16445,0.71261 -0.048,0.46593 -0.048,1.28132 l 0,4.3921 -1.15113,0 0,-4.3921 q 0,-0.5002 -0.0137,-0.8428 -0.0137,-0.34945 -0.0411,-0.58241 -0.0274,-0.23297 -0.0685,-0.37001 -0.0343,-0.14389 -0.0754,-0.23297 -0.0891,-0.17815 -0.26037,-0.28093 -0.16445,-0.10278 -0.43167,-0.10278 -0.28779,0 -0.45223,0.11649 -0.1576,0.10963 -0.23982,0.29463 -0.048,0.10278 -0.0891,0.26038 -0.0343,0.15759 -0.0617,0.39741 -0.0274,0.23297 -0.0411,0.56186 -0.0137,0.3289 -0.0137,0.78113 l 0,4.3921 -1.14428,0 0,-7.6742 z" />
        <path
           id="path3615"
           style=""
           d="m -338.33429,234.60047 1.03465,0 0.10963,0.65779 q 0.22611,-0.41111 0.56871,-0.63038 0.33575,-0.21241 0.77427,-0.21241 0.50705,0 0.86335,0.23982 0.33575,0.23297 0.53445,0.72631 0.23982,-0.50019 0.59612,-0.73316 0.35631,-0.23297 0.86335,-0.23297 0.47279,0 0.80168,0.185 0.3289,0.17816 0.50705,0.52761 0.37685,0.7126 0.37685,2.69967 l 0,4.44692 -1.15113,0 0,-4.3921 q 0,-0.43853 -0.0137,-0.76742 -0.007,-0.3289 -0.0343,-0.56872 -0.0206,-0.24667 -0.0548,-0.41112 -0.0343,-0.17129 -0.0822,-0.27407 -0.0754,-0.17816 -0.23297,-0.28093 -0.15759,-0.10964 -0.44537,-0.10964 -0.26038,0 -0.43853,0.10278 -0.17815,0.0959 -0.28093,0.31519 -0.11648,0.23982 -0.16445,0.71261 -0.048,0.46593 -0.048,1.28132 l 0,4.3921 -1.15113,0 0,-4.3921 q 0,-0.5002 -0.0137,-0.8428 -0.0137,-0.34945 -0.0411,-0.58241 -0.0274,-0.23297 -0.0685,-0.37001 -0.0343,-0.14389 -0.0754,-0.23297 -0.0891,-0.17815 -0.26037,-0.28093 -0.16445,-0.10278 -0.43167,-0.10278 -0.28779,0 -0.45223,0.11649 -0.1576,0.10963 -0.23982,0.29463 -0.048,0.10278 -0.0891,0.26038 -0.0343,0.15759 -0.0617,0.39741 -0.0274,0.23297 -0.0411,0.56186 -0.0137,0.3289 -0.0137,0.78113 l 0,4.3921 -1.14428,0 0,-7.6742 z" />
        <path
           id="path3617"
           style=""
           d="m -327.05596,233.20953 q -0.20556,0 -0.20556,-0.20556 l 0,-1.18539 q 0,-0.20556 0.20556,-0.20556 l 0.98668,0 q 0.20556,0 0.20556,0.20556 l 0,1.18539 q 0,0.20556 -0.20556,0.20556 l -0.98668,0 z m 2.30225,9.11996 q -0.54815,0 -0.98668,-0.1713 -0.43167,-0.1713 -0.76057,-0.55501 -0.62352,-0.72631 -0.62352,-2.05559 l 0,-3.96043 -1.67874,0 0,-0.98669 2.9395,0 0,4.94712 q 0,0.8565 0.31519,1.28132 0.16444,0.22611 0.39056,0.32889 0.23297,0.10278 0.5276,0.10278 l 1.47317,0 0,1.06891 -1.59651,0 z" />
        <path
           id="path3619"
           style=""
           d="m -316.66839,242.30208 q -1.4115,0 -2.00077,-0.56871 -0.58242,-0.56186 -0.58242,-1.95966 l 0,-4.1934 -2.04873,0 0,-0.97984 2.04873,0 0,-2.00762 1.26076,-0.54816 0,2.55578 2.86412,0 0,0.97984 -2.86412,0 0,4.1934 q 0,0.84279 0.32205,1.18539 0.31519,0.33574 1.12372,0.33574 l 1.41835,0 0,1.00724 -1.54169,0 0,0 z" />
      </g>
      <g
         id="text3538"
         style="font-style:normal;font-variant:normal;font-weight:normal;font-stretch:normal;font-size:32.5px;line-height:125%;font-family:Hack;-inkscape-font-specification:Hack;letter-spacing:0px;word-spacing:0px;fill:#000000;fill-opacity:1;stroke:none;stroke-width:1px;stroke-linecap:butt;stroke-linejoin:miter;stroke-opacity:1">
        <path
           id="path3622"
           style=""
           d="m -365.6217,205.05743 3.88794,0 7.25219,23.69263 -3.31665,0 -1.7456,-6.17309 -8.29956,0 -1.71387,6.17309 -3.31665,0 7.2522,-23.69263 z m 5.31616,14.94873 -3.38013,-12.12402 -3.38013,12.12402 6.76026,0 z" />
      </g>
      <g
         id="text3542"
         style="font-style:normal;font-weight:normal;font-size:40px;line-height:125%;font-family:Sans;letter-spacing:0px;word-spacing:0px;fill:#000000;fill-opacity:1;stroke:none;stroke-width:1px;stroke-linecap:butt;stroke-linejoin:miter;stroke-opacity:1" />
    </g>
  </g>
</svg>
