<?xml version="1.0" encoding="UTF-8" standalone="no"?>
<svg
   xmlns:osb="http://www.openswatchbook.org/uri/2009/osb"
   xmlns:dc="http://purl.org/dc/elements/1.1/"
   xmlns:cc="http://creativecommons.org/ns#"
   xmlns:rdf="http://www.w3.org/1999/02/22-rdf-syntax-ns#"
   xmlns:svg="http://www.w3.org/2000/svg"
   xmlns="http://www.w3.org/2000/svg"
   viewBox="0 0 190 49.999998"
   height="50"
   width="190"
   version="1.1"
   id="svg3336">
  <metadata
     id="metadata3342">
    <rdf:RDF>
      <cc:Work
         rdf:about="">
        <dc:format>image/svg+xml</dc:format>
        <dc:type
           rdf:resource="http://purl.org/dc/dcmitype/StillImage" />
        <dc:title></dc:title>
      </cc:Work>
    </rdf:RDF>
  </metadata>
  <defs
     id="defs3340">
    <linearGradient
       osb:paint="solid"
       id="linearGradient5690">
      <stop
         id="stop5692"
         offset="0"
         style="stop-color:#ffffff;stop-opacity:1;" />
    </linearGradient>
  </defs>
  <text
     id="text5110"
     y="-167.22212"
     x="-108.60311"
     style="font-style:normal;font-weight:normal;font-size:40px;line-height:125%;font-family:sans-serif;letter-spacing:0px;word-spacing:0px;fill:#000000;fill-opacity:1;stroke:none;stroke-width:1px;stroke-linecap:butt;stroke-linejoin:miter;stroke-opacity:1"
     xml:space="preserve"><tspan
       y="-167.22212"
       x="-108.60311"
       id="tspan5112" /></text>
  <g
     id="g5205"
     transform="translate(497.83264,-196.97612)">
    <g
       transform="translate(-1.9566853,-0.6191492)"
       id="g3546">
      <path
         id="path3346-1-8-4-4"
         d="m -461.78508,200.18852 0,1.13057 2.17415,1.39147 1.0436,3.21775 0.95662,0.34789 0.52182,-0.2609 1.04358,0.9566 0.95663,-0.087 0.7827,1.65236 0.78271,0 2.69596,1.21752 0.43483,0.60877 0.43485,-0.087 1.56539,-0.78271 0.52181,0.5218 1.04359,2.52202 2.08722,1.73933 0.86965,0.087 3.56564,2.43505 2.3481,0.95664 0.86966,-0.2609 1.91326,1.82629 -0.34787,0.69574 0.17392,0.26091 -0.86966,0.78269 0.43484,1.47843 -0.2609,0.26091 0.60877,1.47842 0.087,1.21754 -0.95662,1.13056 0,1.21753 -0.95664,0.86969 0,0.69572 -0.78271,0.95662 0.26091,0.86968 0.34786,1.13057 0.17394,0.52178 -2.78292,3.3917 -0.7827,0.60878 -1.13057,-0.69574 -1.82628,-0.17395 -0.7827,-0.43481 -3.73959,-0.86966 -1.91326,-1.30451 -0.60878,0.17393 -1.2175,-1.21752 -3.82655,-1.39148 -0.17394,-0.5218 -1.21753,0.17394 -2.43504,-1.39145 -1.13058,0.43482 -2.78291,-1.82631 -0.78271,-1.39144 -0.86965,0 -1.13058,-1.30451 -0.087,-0.7827 -0.69575,-0.34786 0.52181,-1.30452 0.087,-1.39145 0.52178,-3.47867 -1.04361,-3.73957 0.86969,-4.60923 2.34809,-5.30496 0.34786,-3.04382 z"
         style="fill:#ffffff;fill-opacity:1;fill-rule:evenodd;stroke:#000000;stroke-width:1.74001431;stroke-linecap:square;stroke-linejoin:miter;stroke-miterlimit:3.79999995;stroke-dasharray:none;stroke-opacity:1" />
      <flowRoot
         style="font-style:normal;font-variant:normal;font-weight:normal;font-stretch:normal;font-size:32.5px;line-height:125%;font-family:Sans;-inkscape-font-specification:Hack;letter-spacing:0px;word-spacing:0px;fill:#000000;fill-opacity:1;stroke:none;stroke-width:1px;stroke-linecap:butt;stroke-linejoin:miter;stroke-opacity:1"
         id="flowRoot3420"
         xml:space="preserve"
         transform="matrix(1,0,0,-1,0,373.80749)"><flowRegion
           id="flowRegion3422"><rect
             style="font-size:32.5px"
             y="-238.43266"
             x="-432.31961"
             height="102.09365"
             width="231.57828"
             id="rect3424"
             transform="scale(1,-1)" /></flowRegion><flowPara
           style="font-style:normal;font-variant:normal;font-weight:normal;font-stretch:normal;font-size:32.5px;font-family:Hack;-inkscape-font-specification:Hack"
           id="flowPara3426">RNH CK</flowPara></flowRoot>      <text
         id="text3469"
         y="228.75006"
         x="-489.25949"
         style="font-style:normal;font-variant:normal;font-weight:normal;font-stretch:normal;font-size:32.5px;line-height:125%;font-family:Hack;-inkscape-font-specification:Hack;letter-spacing:0px;word-spacing:0px;fill:#000000;fill-opacity:1;stroke:none;stroke-width:1px;stroke-linecap:butt;stroke-linejoin:miter;stroke-opacity:1"
         xml:space="preserve"><tspan
           y="228.75006"
           x="-489.25949"
           id="tspan3471">B</tspan></text>
      <text
         xml:space="preserve"
         style="font-style:normal;font-variant:normal;font-weight:normal;font-stretch:normal;font-size:14.0328207px;line-height:125%;font-family:Hack;-inkscape-font-specification:Hack;letter-spacing:0px;word-spacing:0px;fill:#000000;fill-opacity:1;stroke:none;stroke-width:1px;stroke-linecap:butt;stroke-linejoin:miter;stroke-opacity:1"
         x="-431.93896"
         y="242.27467"
         id="text3442"><tspan
           id="tspan3444"
           x="-431.93896"
           y="242.27467">Initial commit</tspan></text>
      <text
         xml:space="preserve"
         style="font-style:normal;font-variant:normal;font-weight:normal;font-stretch:normal;font-size:32.5px;line-height:125%;font-family:Hack;-inkscape-font-specification:Hack;letter-spacing:0px;word-spacing:0px;fill:#000000;fill-opacity:1;stroke:none;stroke-width:1px;stroke-linecap:butt;stroke-linejoin:miter;stroke-opacity:1"
         x="-373.46106"
         y="228.75006"
         id="text3538"><tspan
           id="tspan3540"
           x="-373.46106"
           y="228.75006">A</tspan></text>
      <text
         xml:space="preserve"
         style="font-style:normal;font-weight:normal;font-size:40px;line-height:125%;font-family:Sans;letter-spacing:0px;word-spacing:0px;fill:#000000;fill-opacity:1;stroke:none;stroke-width:1px;stroke-linecap:butt;stroke-linejoin:miter;stroke-opacity:1"
         x="-353.97427"
         y="218.31908"
         id="text3542"><tspan
           id="tspan3544"
           x="-353.97427"
           y="218.31908"> </tspan></text>
    </g>
  </g>
</svg>
