<?xml version="1.0" encoding="UTF-8" standalone="no"?>
<svg
   xmlns:osb="http://www.openswatchbook.org/uri/2009/osb"
   xmlns:dc="http://purl.org/dc/elements/1.1/"
   xmlns:cc="http://creativecommons.org/ns#"
   xmlns:rdf="http://www.w3.org/1999/02/22-rdf-syntax-ns#"
   xmlns:svg="http://www.w3.org/2000/svg"
   xmlns="http://www.w3.org/2000/svg"
   id="svg3336"
   version="1.1"
   width="350"
   height="400"
   viewBox="0 0 350 400">
  <metadata
     id="metadata3342">
    <rdf:RDF>
      <cc:Work
         rdf:about="">
        <dc:format>image/svg+xml</dc:format>
        <dc:type
           rdf:resource="http://purl.org/dc/dcmitype/StillImage" />
        <dc:title></dc:title>
      </cc:Work>
    </rdf:RDF>
  </metadata>
  <defs
     id="defs3340">
    <linearGradient
       id="linearGradient5690"
       osb:paint="solid">
      <stop
         style="stop-color:#ffffff;stop-opacity:1;"
         offset="0"
         id="stop5692" />
    </linearGradient>
  </defs>
  <text
     xml:space="preserve"
     style="font-style:normal;font-weight:normal;font-size:40px;line-height:125%;font-family:sans-serif;letter-spacing:0px;word-spacing:0px;fill:#000000;fill-opacity:1;stroke:none;stroke-width:1px;stroke-linecap:butt;stroke-linejoin:miter;stroke-opacity:1"
     x="-595.58606"
     y="18.180925"
     id="text5110"><tspan
       id="tspan5112"
       x="-595.58606"
       y="18.180925" /></text>
  <g
     transform="translate(10.849695,-11.572856)"
     id="g5205">
    <path
       id="path3346-1-8-4-4"
       d="m 62.414644,37.281136 0,10.86095 20.8864,13.36732 10.0254,30.91194 9.190096,3.34182 5.0128,-2.50639 10.0254,9.190024 9.19,-0.83543 7.5191,15.87371 7.5192,0 25.8991,11.69637 4.1774,5.8482 4.1773,-0.8354 15.0382,-7.51916 5.0128,5.01274 10.0254,24.22822 20.051,16.70919 8.3546,0.8355 34.2538,23.3927 22.5573,9.1901 8.3545,-2.5064 18.3801,17.5446 -3.3418,6.6837 1.6709,2.5064 -8.3545,7.5191 4.1772,14.2028 -2.5063,2.5063 5.8482,14.2028 0.8354,11.6964 -9.19,10.861 0,11.6964 -9.1901,8.3546 0,6.6836 -7.5191,9.18996 2.5064,8.3547 3.3418,10.8609 1.6709,5.0127 -26.7346,32.5829 -7.5191,5.8482 -10.861,-6.6837 -17.5445,-1.671 -7.5191,-4.1772 -35.9248,-8.3545 -18.3801,-12.5319 -5.8482,1.6709 -11.6963,-11.6964 -36.7602,-13.3674 -1.6709,-5.0127 -11.6964,1.671 -23.392696,-13.36726 -10.861,4.1772 -26.7346,-17.5446 -7.5191,-13.3673 -8.3545,0 -10.861,-12.5319 -0.8354,-7.5191 -6.6838,-3.3418 5.0128,-12.5319 0.8355,-13.3673 5.0127,-33.4183 -10.0256,-35.9247 8.3547,-44.27925 22.5574,-50.962884 3.3418,-29.24104 z"
       style="fill:#ffffff;fill-opacity:1;fill-rule:evenodd;stroke:#000000;stroke-width:16.71570587;stroke-linecap:square;stroke-linejoin:miter;stroke-miterlimit:3.79999995;stroke-dasharray:none;stroke-opacity:1" />
    <g
       id="g5747">
      <g
         id="g5708"
         transform="matrix(1.2049576,0,0,1.2049576,-2.0715326,-51.504782)">
        <path
           style="font-style:normal;font-variant:normal;font-weight:normal;font-stretch:condensed;font-size:medium;line-height:125%;font-family:Impact;-inkscape-font-specification:'Impact Condensed';letter-spacing:0px;word-spacing:0px;fill:none;fill-opacity:1;stroke:#000000;stroke-width:2.22068286;stroke-linecap:butt;stroke-linejoin:miter;stroke-miterlimit:4;stroke-dasharray:none;stroke-opacity:1"
           d="m 29.991144,222.00374 c 7.2008,0.2071 14.5738,-0.9774 21.6144,0.9997 6.4251,2.8119 6.8498,11.9041 5.3453,18.1241 -0.5309,3.4867 -8.8255,3.3795 -2.804,4.6953 5.3704,2.2947 4.4519,9.2564 4.5895,14.3209 0.1058,8.6121 -3.5639,11.2015 -10.7945,11.8537 -5.8199,0.175 -11.6437,0.158 -17.4652,0.2452 l -0.4858,-50.2388 z m 12.2722,8.4636 0.1083,11.171 c 5.9511,1.4928 5.5624,-12.5542 -0.1083,-11.171 z m 0.1836,18.9909 0.1361,14.0569 c 5.0659,0.7409 3.8269,-5.351 3.9109,-8.783 0.2714,-3.3539 -0.3508,-5.7582 -4.0467,-5.2739 z"
           id="path5989-3-1-0-2-5-3" />
        <path
           style="font-style:normal;font-variant:normal;font-weight:normal;font-stretch:condensed;font-size:medium;line-height:125%;font-family:Impact;-inkscape-font-specification:'Impact Condensed';letter-spacing:0px;word-spacing:0px;fill:none;fill-opacity:1;stroke:#000000;stroke-width:2.22068286;stroke-linecap:butt;stroke-linejoin:miter;stroke-miterlimit:4;stroke-dasharray:none;stroke-opacity:1"
           d="m 81.869544,251.60724 c -0.3977,4.1954 -0.4754,8.4878 -1.6012,12.5625 -1.4992,4.6572 -5.8274,7.7592 -10.3107,8.1705 -5.2021,0.5597 -11.2174,-0.6123 -14.4805,-5.332 -2.038,-2.7755 -2.3996,-6.419 -2.1635,-9.8488 0.3578,-7.5339 0.9434,-15.0595 1.5951,-22.5737 0.3041,-3.58 0.8477,-7.4085 3.2907,-10.1282 3.8351,-4.5025 10.1558,-4.9977 15.346,-3.6613 4.147,0.9956 7.8973,4.2127 8.9907,8.719 0.8418,3.8101 0.2133,7.7841 0.085,11.6564 -0.2415,3.479 -0.5011,6.9571 -0.7524,10.4356 z m -10.9642,-17.3339 c 0.018,-1.8895 0.8875,-5.7669 -1.906,-5.5611 -2.1519,0.7381 -1.5669,3.7915 -1.9336,5.6661 -0.601,8.7355 -1.3377,17.4638 -1.8402,26.2048 -0.5613,1.8971 0.9046,4.4181 2.8182,2.9842 1.162,-1.7927 0.8889,-4.1908 1.1907,-6.2666 0.5571,-7.6758 1.1139,-15.3515 1.6709,-23.0274 z"
           id="path5991-3-3-0-8-1-5" />
        <path
           style="font-style:normal;font-variant:normal;font-weight:normal;font-stretch:condensed;font-size:medium;line-height:125%;font-family:Impact;-inkscape-font-specification:'Impact Condensed';letter-spacing:0px;word-spacing:0px;fill:none;fill-opacity:1;stroke:#000000;stroke-width:2.22068286;stroke-linecap:butt;stroke-linejoin:miter;stroke-miterlimit:4;stroke-dasharray:none;stroke-opacity:1"
           d="m 78.365444,221.56834 c 6.4844,0.013 12.9941,-0.4245 19.454,0.3358 3.943796,0.346 6.940696,4.0821 7.475296,8.1399 0.5542,3.8163 0.7212,7.8396 -0.2821,11.5864 -0.7621,2.6801 -3.6004,3.4986 -5.916296,3.7337 2.466696,0.5405 5.054796,1.7828 6.090596,4.4302 0.9488,2.5535 0.5896,5.4013 0.748,8.0925 0.045,4.5418 0.088,9.0838 0.1313,13.6258 -3.7735,0.041 -7.546796,0.081 -11.320496,0.1221 -0.093,-6.3046 -0.053,-12.6135 -0.2422,-18.9151 0.245,-2.2094 -1.2182,-4.1026 -3.3754,-3.6968 -0.6447,0.1463 -0.1387,1.5156 -0.2861,2.1905 0.066,6.8204 0.1316,13.6411 0.1977,20.4616 -4.0628,0.044 -8.1259,0.087 -12.189,0.1313 -0.1621,-16.7463 -0.3238,-33.4924 -0.4858,-50.2387 z m 12.2724,8.4636 c 0.035,3.7237 0.071,7.4473 0.1083,11.171 2.0546,0.3626 3.9954,-1.0285 3.6437,-3.4201 -0.054,-2.0818 0.2085,-4.2318 -0.3476,-6.253 -0.5087,-1.4497 -2.1892,-1.4816 -3.4041,-1.498 z"
           id="path5993-3-5-1-9-5-3" />
        <path
           style="font-style:normal;font-variant:normal;font-weight:normal;font-stretch:condensed;font-size:medium;line-height:125%;font-family:Impact;-inkscape-font-specification:'Impact Condensed';letter-spacing:0px;word-spacing:0px;fill:none;fill-opacity:1;stroke:#000000;stroke-width:2.22068286;stroke-linecap:butt;stroke-linejoin:miter;stroke-miterlimit:4;stroke-dasharray:none;stroke-opacity:1"
           d="m 129.01414,221.01094 c 0.1619,16.7464 0.324,33.4925 0.4859,50.2389 -3.5613,0.038 -7.1224,0.077 -10.6837,0.1161 -2.187,-7.5902 -4.3742,-15.1803 -6.5616,-22.7701 0.074,7.6128 0.1471,15.2257 0.2209,22.8388 -3.397,0.036 -6.7942,0.074 -10.1915,0.1101 -0.1618,-16.7465 -0.3237,-33.4927 -0.4857,-50.239 3.3972,-0.037 6.7944,-0.074 10.1915,-0.1102 2.3503,7.516 4.7011,15.0316 7.0516,22.5475 -0.073,-7.5405 -0.1454,-15.081 -0.2187,-22.6213 3.397,-0.037 6.7943,-0.074 10.1914,-0.1102 z"
           id="path5995-2-6-3-1-4-9" />
        <path
           style="font-style:normal;font-variant:normal;font-weight:normal;font-stretch:condensed;font-size:medium;line-height:125%;font-family:Impact;-inkscape-font-specification:'Impact Condensed';letter-spacing:0px;word-spacing:0px;fill:none;fill-opacity:1;stroke:#000000;stroke-width:2.22068286;stroke-linecap:butt;stroke-linejoin:miter;stroke-miterlimit:4;stroke-dasharray:none;stroke-opacity:1"
           d="m 161.02654,221.09394 c 0.162,16.7464 0.3237,33.4926 0.4858,50.2391 -4.0632,0.044 -8.1261,0.088 -12.1892,0.1326 -0.068,-7.0337 -0.136,-14.0673 -0.204,-21.1008 -1.2159,0.015 -2.4322,0.025 -3.6479,0.039 0.068,7.0337 0.1361,14.0672 0.2038,21.101 -4.063,0.044 -8.126,0.088 -12.1892,0.1313 -0.1617,-16.7463 -0.3238,-33.4926 -0.4856,-50.239 4.0629,-0.044 8.126,-0.087 12.1891,-0.1313 0.058,5.989 0.116,11.9779 0.1738,17.9669 1.216,-0.015 2.4319,-0.026 3.648,-0.039 -0.057,-5.9891 -0.1159,-11.9779 -0.1737,-17.9668 4.0631,-0.044 8.126,-0.088 12.1891,-0.1329 z"
           id="path5997-3-2-2-1-2-00" />
        <path
           style="font-style:normal;font-variant:normal;font-weight:normal;font-stretch:condensed;font-size:medium;line-height:125%;font-family:Impact;-inkscape-font-specification:'Impact Condensed';letter-spacing:0px;word-spacing:0px;fill:none;fill-opacity:1;stroke:#000000;stroke-width:2.22068286;stroke-linecap:butt;stroke-linejoin:miter;stroke-miterlimit:4;stroke-dasharray:none;stroke-opacity:1"
           d="m 180.58164,220.55884 c 2.488,16.7211 4.9756,33.4422 7.4635,50.1634 -4.1595,0.046 -8.3192,0.09 -12.4785,0.1356 -0.232,-3.0078 -0.4637,-6.0155 -0.6956,-9.0233 -1.4573,0.015 -2.9146,0.031 -4.3718,0.047 -0.2123,3.0126 -0.4245,6.0254 -0.6365,9.0378 -4.2078,0.045 -8.4157,0.092 -12.6233,0.1371 1.9035,-16.7687 3.8067,-33.5374 5.71,-50.306 5.8774,-0.064 11.7548,-0.1268 17.6323,-0.1909 z m -6.1441,32.373 c -0.8234,-7.0002 -1.4651,-14.0233 -2.0569,-21.0497 -0.8145,7.0174 -1.65,14.0383 -2.1122,21.0949 1.3897,-0.015 2.7794,-0.03 4.1691,-0.045 z"
           id="path5999-5-7-7-2-4-3" />
        <path
           style="font-style:normal;font-variant:normal;font-weight:normal;font-stretch:condensed;font-size:medium;line-height:125%;font-family:Impact;-inkscape-font-specification:'Impact Condensed';letter-spacing:0px;word-spacing:0px;fill:none;fill-opacity:1;stroke:#000000;stroke-width:2.22099996;stroke-linecap:butt;stroke-linejoin:miter;stroke-miterlimit:4;stroke-dasharray:none;stroke-opacity:1"
           d="m 211.75134,242.43814 c -4.063,0.044 -8.1261,0.087 -12.1891,0.1326 -0.093,-4.1305 0.052,-8.2743 -0.2787,-12.3926 0.2001,-2.6909 -4.0511,-2.7314 -4.0449,-0.1331 -0.3673,4.139 -0.08,8.3082 -0.1076,12.4614 0.095,5.9382 0.035,11.8824 0.2499,17.8162 -0.3924,2.1708 1.7061,4.1694 3.5059,2.705 1.1775,-1.7493 0.6684,-4.1549 0.813,-6.1877 -0.02,-2.0155 -0.038,-4.0307 -0.059,-6.0458 4.0632,-0.044 8.1263,-0.088 12.1892,-0.1326 -0.021,4.6157 0.2929,9.4103 -1.2014,13.818 -2.2426,4.9642 -7.5524,7.4953 -12.5181,7.4932 -4.7041,0.1508 -10.099,-1.0655 -12.875,-5.5446 -2.0727,-3.8272 -2.005,-8.442 -2.186,-12.7317 -0.026,-6.9526 -0.2535,-13.9077 -0.067,-20.8581 -0.095,-4.3344 1.9253,-8.7158 5.5016,-10.8731 4.484,-2.7767 10.0996,-2.9271 14.9779,-1.3463 3.7118,1.3019 7.0528,4.5346 7.595,8.8447 0.7834,4.2704 0.6186,8.6457 0.6938,12.9746 z"
           id="path6001-3-8-8-0-0-6" />
        <path
           style="font-style:normal;font-variant:normal;font-weight:normal;font-stretch:condensed;font-size:medium;line-height:125%;font-family:Impact;-inkscape-font-specification:'Impact Condensed';letter-spacing:0px;word-spacing:0px;fill:none;fill-opacity:1;stroke:#000000;stroke-width:2.22068286;stroke-linecap:butt;stroke-linejoin:miter;stroke-miterlimit:4;stroke-dasharray:none;stroke-opacity:1"
           d="m 237.53004,220.36544 c -2.2527,7.5862 -4.5055,15.1726 -6.7583,22.7591 2.6367,9.1575 5.2732,18.3149 7.91,27.4726 -4.1983,0.046 -8.3963,0.091 -12.5946,0.1358 -1.7099,-7.1608 -3.4201,-14.3215 -5.1303,-21.4821 0.07,7.1785 0.1393,14.3568 0.2082,21.5353 -4.063,0.044 -8.1259,0.087 -12.189,0.1326 -0.162,-16.7462 -0.3239,-33.4925 -0.4858,-50.2388 4.063,-0.044 8.1261,-0.088 12.1893,-0.1327 0.063,6.5062 0.1254,13.0124 0.1885,19.5185 1.7419,-6.5256 3.4837,-13.0513 5.2255,-19.577 3.8121,-0.04 7.6243,-0.083 11.4364,-0.1237 z"
           id="path6003-5-9-9-4-4-6" />
      </g>
      <g
         id="text5718"
         style="font-style:normal;font-variant:normal;font-weight:normal;font-stretch:normal;font-size:23.43444252px;line-height:125%;font-family:Hack;-inkscape-font-specification:Hack;letter-spacing:0px;word-spacing:0px;fill:#000000;fill-opacity:1;stroke:none;stroke-width:1px;stroke-linecap:butt;stroke-linejoin:miter;stroke-opacity:1">
        <path
           id="path3361"
           style="font-size:22.5px"
           d="m 32.718891,207.37566 3.438721,0 0,-12.66724 -3.438721,0 0,-1.86768 9.107666,0 0,1.86768 -3.438721,0 0,12.66724 3.438721,0 0,1.86767 -9.107666,0 0,-1.86767 z" />
        <path
           id="path3363"
           style="font-size:22.5px"
           d="m 46.188129,196.93864 1.823731,0 0.197754,1.84571 q 0.549316,-1.06568 1.461181,-1.60401 0.911866,-0.53833 2.175293,-0.53833 0.98877,0 1.680909,0.31861 0.692138,0.3186 1.142578,0.91186 0.922851,1.24146 0.922851,3.74634 l 0,7.62451 -2.03247,0 0,-7.62451 q 0,-1.65894 -0.582276,-2.43896 -0.582275,-0.78003 -1.834717,-0.78003 -0.725097,0 -1.263427,0.25268 -0.527344,0.25269 -0.900879,0.74707 -0.769043,0.99976 -0.769043,2.88941 l 0,6.95434 -2.021485,0 0,-12.30469 z" />
        <path
           id="path3365"
           style="font-size:22.5px"
           d="m 63.326801,194.70842 q -0.32959,0 -0.32959,-0.32959 l 0,-1.90063 q 0,-0.32959 0.32959,-0.32959 l 1.582032,0 q 0.329589,0 0.329589,0.32959 l 0,1.90063 q 0,0.32959 -0.329589,0.32959 l -1.582032,0 z m 3.691407,14.6228 q -0.878907,0 -1.582032,-0.27466 -0.692138,-0.27465 -1.219482,-0.88989 -0.999756,-1.16455 -0.999756,-3.2959 l 0,-6.35009 -2.69165,0 0,-1.58204 4.713134,0 0,7.93213 q 0,1.37329 0.505371,2.05445 0.263672,0.36255 0.626221,0.52734 0.373535,0.1648 0.845947,0.1648 l 2.362061,0 0,1.71386 -2.559814,0 z" />
        <path
           id="path3367"
           style="font-size:22.5px"
           d="m 79.982075,209.28728 q -2.263184,0 -3.208008,-0.91187 -0.933838,-0.90088 -0.933838,-3.14209 l 0,-6.72363 -3.284912,0 0,-1.57105 3.284912,0 0,-3.21899 2.021484,-0.87891 0,4.0979 4.592286,0 0,1.57105 -4.592286,0 0,6.72363 q 0,1.35132 0.516358,1.90064 0.505371,0.53833 1.801758,0.53833 l 2.27417,0 0,1.61499 -2.471924,0 0,0 z" />
        <path
           id="path3369"
           style="font-size:22.5px"
           d="m 90.397114,194.70842 q -0.32959,0 -0.32959,-0.32959 l 0,-1.90063 q 0,-0.32959 0.32959,-0.32959 l 1.582031,0 q 0.32959,0 0.32959,0.32959 l 0,1.90063 q 0,0.32959 -0.32959,0.32959 l -1.582031,0 z m 3.691406,14.6228 q -0.878906,0 -1.582031,-0.27466 -0.692139,-0.27465 -1.219483,-0.88989 -0.999755,-1.16455 -0.999755,-3.2959 l 0,-6.35009 -2.691651,0 0,-1.58204 4.713135,0 0,7.93213 q 0,1.37329 0.505371,2.05445 0.263672,0.36255 0.626221,0.52734 0.373535,0.1648 0.845947,0.1648 l 2.362061,0 0,1.71386 -2.559815,0 z" />
        <path
           id="path3371"
           style="font-size:22.5px"
           d="m 103.82241,209.56194 q -1.91162,0 -3.02124,-1.06568 -0.52735,-0.50537 -0.823978,-1.18652 -0.296631,-0.69214 -0.296631,-1.65894 0,-2.03247 1.384279,-3.10913 1.3623,-1.06567 4.04297,-1.06567 l 2.71362,0 0,-0.31861 q 0,-0.70312 -0.18677,-1.25244 -0.18676,-0.54931 -0.5603,-0.88989 -0.36255,-0.32959 -0.95581,-0.49438 -0.59326,-0.1648 -1.38428,-0.1648 -1.0437,0 -2.09839,0.29663 -1.06567,0.29663 -2.05444,0.86792 l 0,-2.02148 q 0.46143,-0.17578 1.02173,-0.35157 0.5603,-0.17578 1.13159,-0.29663 0.99976,-0.20874 2.0105,-0.20874 0.78003,0 1.41723,0.12085 0.63721,0.10987 1.18653,0.34058 0.50537,0.21973 0.95581,0.5603 0.46142,0.32959 0.78003,0.76905 0.23071,0.3186 0.37353,0.67016 0.14283,0.35156 0.21973,0.69214 0.17578,0.802 0.17578,2.42798 l 0,2.51587 q 0.022,0.6372 0.033,1.1206 0.011,0.4834 0.0659,0.90088 0.0549,0.46143 0.12085,0.86792 0.0769,0.4065 0.13183,0.61524 0.0769,0.34057 0.17578,0.64819 0.0989,0.29663 0.12085,0.35156 l -2.03247,0 q -0.0549,-0.13183 -0.14282,-0.38452 -0.0769,-0.26367 -0.15381,-0.57129 -0.0549,-0.2417 -0.10986,-0.4834 -0.0439,-0.25268 -0.0659,-0.42846 -0.3186,0.54931 -0.82397,0.97778 -0.49439,0.42847 -0.97779,0.68115 -0.52734,0.27466 -1.1206,0.39551 -0.58228,0.13184 -1.25244,0.13184 z m 0.41748,-1.6919 q 1.65893,0 2.61474,-1.16455 0.9668,-1.18652 0.9668,-3.19702 l 0,-0.45044 -2.55981,0 q -1.75782,0 -2.6587,0.61523 -0.47241,0.31861 -0.69213,0.79102 -0.20874,0.46142 -0.20874,1.07666 0,0.57129 0.17578,0.99976 0.17578,0.41748 0.49438,0.71411 0.3186,0.28564 0.76904,0.45044 0.46143,0.16479 1.09864,0.16479 z" />
        <path
           id="path3373"
           style="font-size:22.5px"
           d="m 120.74135,209.33122 q -0.8789,0 -1.58203,-0.27466 -0.69214,-0.27465 -1.21948,-0.88989 -0.99976,-1.16455 -0.99976,-3.2959 l 0,-11.14013 -3.24096,0 0,-1.58203 5.26245,0 0,12.72216 q 0,1.37329 0.50537,2.05445 0.26367,0.36255 0.62622,0.52734 0.37353,0.1648 0.84595,0.1648 l 2.36206,0 0,1.71386 -2.55982,0 0,0 z" />
        <path
           id="path3375"
           style="font-size:22.5px"
           d="m 146.61415,209.56194 q -1.37329,0 -2.50488,-0.42847 -1.1206,-0.43945 -1.91162,-1.2854 -0.802,-0.85694 -1.2085,-2.04346 -0.3955,-1.19751 -0.3955,-2.70264 0,-1.57104 0.41748,-2.75756 0.42846,-1.18653 1.19751,-1.99952 0.81299,-0.85693 1.9226,-1.27441 1.12061,-0.42847 2.4939,-0.42847 0.50537,0 0.93384,0.0549 0.42847,0.0549 0.84595,0.17578 0.83496,0.23071 1.70288,0.71411 l 0,2.12036 q -0.4065,-0.35156 -0.802,-0.61524 -0.39551,-0.26367 -0.80201,-0.41748 -0.82397,-0.3186 -1.82373,-0.3186 -1.91162,0 -2.93335,1.23047 -1.02173,1.24145 -1.02173,3.50464 0,1.05469 0.23072,1.95556 0.2417,0.90088 0.79101,1.56006 1.03272,1.24146 2.96631,1.24146 0.54932,0 0.99976,-0.0879 0.46142,-0.0879 0.84594,-0.2417 0.49439,-0.18677 0.84595,-0.42847 0.36255,-0.25268 0.70313,-0.57129 l 0,2.09839 q -0.37354,0.21973 -0.81299,0.4065 -0.43945,0.18676 -0.85693,0.30761 -0.38453,0.10987 -0.84595,0.1648 -0.45044,0.0659 -0.97779,0.0659 z" />
        <path
           id="path3377"
           style="font-size:22.5px"
           d="m 159.09462,209.56194 q -1.26342,0 -2.25219,-0.4065 -0.97779,-0.41748 -1.65894,-1.24145 -0.69214,-0.85694 -1.02173,-2.06543 -0.32959,-1.21949 -0.32959,-2.75757 0,-3.12012 1.35132,-4.79004 1.35132,-1.65894 3.91113,-1.65894 1.31836,0 2.28516,0.42847 0.97778,0.41748 1.63696,1.23047 1.35132,1.66992 1.35132,4.77905 0,1.57105 -0.34058,2.79053 -0.32958,1.21948 -1.01074,2.04346 -0.65918,0.81298 -1.64795,1.23046 -0.97778,0.41749 -2.27417,0.41749 z m 0,-1.71387 q 1.54908,0 2.34009,-1.2085 0.79102,-1.19751 0.79102,-3.5376 0,-2.34008 -0.79102,-3.54858 -0.79101,-1.19751 -2.34009,-1.19751 -1.53808,0 -2.3291,1.19751 -0.79101,1.2085 -0.79101,3.54858 0,2.34009 0.79101,3.5376 0.79102,1.2085 2.3291,1.2085 z" />
        <path
           id="path3379"
           style="font-size:22.5px"
           d="m 167.05971,196.93864 1.65894,0 0.17578,1.05469 q 0.36255,-0.65918 0.91186,-1.01074 0.53833,-0.34058 1.24146,-0.34058 0.81299,0 1.38428,0.38453 0.53833,0.37353 0.85693,1.16455 0.38452,-0.80201 0.95581,-1.17554 0.57129,-0.37354 1.38428,-0.37354 0.75805,0 1.2854,0.29663 0.52734,0.28565 0.81299,0.84595 0.60424,1.14258 0.60424,4.32861 l 0,7.13013 -1.8457,0 0,-7.04223 q 0,-0.70313 -0.022,-1.23047 -0.011,-0.52735 -0.0549,-0.91187 -0.033,-0.39551 -0.0879,-0.65918 -0.0549,-0.27466 -0.13184,-0.43945 -0.12085,-0.28565 -0.37354,-0.45044 -0.25268,-0.17578 -0.71411,-0.17578 -0.41748,0 -0.70312,0.16479 -0.28565,0.15381 -0.45044,0.50537 -0.18677,0.38453 -0.26367,1.14258 -0.0769,0.74707 -0.0769,2.05445 l 0,7.04223 -1.8457,0 0,-7.04223 q 0,-0.80201 -0.022,-1.35132 -0.022,-0.56031 -0.0659,-0.93384 -0.0439,-0.37354 -0.10986,-0.59326 -0.0549,-0.23072 -0.12085,-0.37354 -0.14283,-0.28564 -0.41748,-0.45044 -0.26368,-0.16479 -0.69214,-0.16479 -0.46143,0 -0.7251,0.18677 -0.25269,0.17578 -0.38452,0.47241 -0.0769,0.16479 -0.14282,0.41748 -0.0549,0.25268 -0.0989,0.63721 -0.0439,0.37353 -0.0659,0.90087 -0.022,0.52735 -0.022,1.25245 l 0,7.04223 -1.83472,0 0,-12.30469 z" />
        <path
           id="path3381"
           style="font-size:22.5px"
           d="m 180.59487,196.93864 1.65893,0 0.17578,1.05469 q 0.36255,-0.65918 0.91187,-1.01074 0.53833,-0.34058 1.24145,-0.34058 0.81299,0 1.38428,0.38453 0.53833,0.37353 0.85694,1.16455 0.38452,-0.80201 0.95581,-1.17554 0.57129,-0.37354 1.38427,-0.37354 0.75806,0 1.2854,0.29663 0.52735,0.28565 0.81299,0.84595 0.60425,1.14258 0.60425,4.32861 l 0,7.13013 -1.8457,0 0,-7.04223 q 0,-0.70313 -0.022,-1.23047 -0.011,-0.52735 -0.0549,-0.91187 -0.033,-0.39551 -0.0879,-0.65918 -0.0549,-0.27466 -0.13183,-0.43945 -0.12085,-0.28565 -0.37354,-0.45044 -0.25268,-0.17578 -0.71411,-0.17578 -0.41748,0 -0.70313,0.16479 -0.28564,0.15381 -0.45043,0.50537 -0.18677,0.38453 -0.26368,1.14258 -0.0769,0.74707 -0.0769,2.05445 l 0,7.04223 -1.8457,0 0,-7.04223 q 0,-0.80201 -0.022,-1.35132 -0.022,-0.56031 -0.0659,-0.93384 -0.0439,-0.37354 -0.10987,-0.59326 -0.0549,-0.23072 -0.12085,-0.37354 -0.14282,-0.28564 -0.41748,-0.45044 -0.26367,-0.16479 -0.69214,-0.16479 -0.46142,0 -0.72509,0.18677 -0.25269,0.17578 -0.38453,0.47241 -0.0769,0.16479 -0.14282,0.41748 -0.0549,0.25268 -0.0989,0.63721 -0.0439,0.37353 -0.0659,0.90087 -0.022,0.52735 -0.022,1.25245 l 0,7.04223 -1.83471,0 0,-12.30469 z" />
        <path
           id="path3383"
           style="font-size:22.5px"
           d="m 198.67836,194.70842 q -0.32959,0 -0.32959,-0.32959 l 0,-1.90063 q 0,-0.32959 0.32959,-0.32959 l 1.58204,0 q 0.32958,0 0.32958,0.32959 l 0,1.90063 q 0,0.32959 -0.32958,0.32959 l -1.58204,0 z m 3.69141,14.6228 q -0.87891,0 -1.58203,-0.27466 -0.69214,-0.27465 -1.21948,-0.88989 -0.99976,-1.16455 -0.99976,-3.2959 l 0,-6.35009 -2.69165,0 0,-1.58204 4.71313,0 0,7.93213 q 0,1.37329 0.50538,2.05445 0.26367,0.36255 0.62622,0.52734 0.37353,0.1648 0.84594,0.1648 l 2.36206,0 0,1.71386 -2.55981,0 z" />
        <path
           id="path3385"
           style="font-size:22.5px"
           d="m 215.33364,209.28728 q -2.26319,0 -3.20801,-0.91187 -0.93384,-0.90088 -0.93384,-3.14209 l 0,-6.72363 -3.28491,0 0,-1.57105 3.28491,0 0,-3.21899 2.02149,-0.87891 0,4.0979 4.59228,0 0,1.57105 -4.59228,0 0,6.72363 q 0,1.35132 0.51635,1.90064 0.50537,0.53833 1.80176,0.53833 l 2.27417,0 0,1.61499 -2.47192,0 0,0 z" />
      </g>
      <g
         id="text5743"
         style="font-style:normal;font-weight:normal;font-size:21.57444954px;line-height:125%;font-family:Sans;letter-spacing:0px;word-spacing:0px;fill:#000000;fill-opacity:1;stroke:none;stroke-width:1px;stroke-linecap:butt;stroke-linejoin:miter;stroke-opacity:1">
        <path
           id="path3388"
           style="font-style:normal;font-variant:normal;font-weight:normal;font-stretch:normal;font-size:22.5px;font-family:hack;-inkscape-font-specification:hack"
           d="m 114.46486,293.86139 q 0,-0.20874 0.0549,-0.36255 0.0659,-0.16479 0.21973,-0.3186 0.62622,-0.65918 1.48315,-1.56006 0.85694,-0.91187 1.83472,-1.97754 0.5603,-0.60425 0.90088,-0.97778 0.34057,-0.37354 0.5603,-0.61524 0.21973,-0.2417 0.35156,-0.39551 0.14282,-0.16479 0.29663,-0.35156 0.29663,-0.35156 0.51636,-0.63721 0.23071,-0.29663 0.40649,-0.54931 0.18677,-0.26367 0.31861,-0.50537 0.14282,-0.2417 0.25268,-0.4834 0.18677,-0.41748 0.28565,-0.83496 0.0989,-0.41748 0.0989,-0.87891 0,-0.65918 -0.19776,-1.19751 -0.19775,-0.54932 -0.60425,-0.93384 -0.81298,-0.78003 -2.23022,-0.78003 -0.98877,0 -2.0874,0.36255 -1.09864,0.36255 -2.32911,1.09864 l 0,-2.24122 q 0.57129,-0.27465 1.1316,-0.47241 0.57129,-0.20874 1.09863,-0.34057 0.54932,-0.14283 1.08765,-0.20874 0.53833,-0.0659 1.06567,-0.0659 1.14258,0 2.14233,0.30762 0.99976,0.30761 1.74683,0.96679 0.65918,0.58228 1.05469,1.42823 0.39551,0.83496 0.39551,1.88964 0,0.56031 -0.12085,1.09864 -0.12085,0.52734 -0.36255,1.06567 -0.12085,0.27466 -0.27466,0.53833 -0.15381,0.26367 -0.35156,0.53833 -0.18677,0.27466 -0.42847,0.58228 -0.2417,0.29663 -0.53833,0.64819 -0.3186,0.37353 -0.75806,0.86792 -0.43945,0.49438 -1.02173,1.1206 -0.41748,0.45044 -0.76904,0.81299 -0.35156,0.35157 -0.75806,0.75806 -0.3955,0.39551 -0.91186,0.91186 -0.50537,0.51636 -1.24146,1.29639 l 7.64649,0 0,1.86768 -9.9646,0 0,-1.47217 z" />
        <path
           id="path3390"
           style="font-style:normal;font-variant:normal;font-weight:normal;font-stretch:normal;font-size:22.5px;font-family:hack;-inkscape-font-specification:hack"
           d="m 135.71242,280.79865 -7.85523,0 0,-1.86768 10.32715,0 0,0.94482 -5.8667,15.45777 -2.31811,0 5.71289,-14.53491 z" />
        <path
           id="path3392"
           style="font-style:normal;font-variant:normal;font-weight:normal;font-stretch:normal;font-size:22.5px;font-family:hack;-inkscape-font-specification:hack"
           d="m 149.6321,278.93097 2.0874,0 -8.63526,18.48999 -2.09838,0 8.64624,-18.48999 z" />
        <path
           id="path3394"
           style="font-style:normal;font-variant:normal;font-weight:normal;font-stretch:normal;font-size:22.5px;font-family:hack;-inkscape-font-specification:hack"
           d="m 160.157,295.65216 q -1.27442,0 -2.2522,-0.3186 -0.9668,-0.32959 -1.64795,-0.92285 -0.68115,-0.59327 -1.05469,-1.4502 -0.36255,-0.86792 -0.36255,-2.02148 0,-1.74683 0.87891,-2.85645 0.86792,-1.09863 2.51587,-1.46118 -0.67017,-0.1648 -1.24145,-0.50537 -0.57129,-0.34058 -0.9668,-0.83496 -0.41748,-0.51636 -0.61524,-1.13159 -0.18676,-0.61524 -0.18676,-1.30738 0,-0.93384 0.32959,-1.70288 0.32959,-0.78003 0.99975,-1.3623 0.6482,-0.56031 1.53809,-0.84595 0.90088,-0.29663 2.07641,-0.29663 1.17554,0 2.07642,0.29663 0.90088,0.28564 1.54907,0.84595 0.65918,0.5603 0.98877,1.34033 0.34058,0.76904 0.34058,1.73584 0,0.74707 -0.20874,1.34033 -0.19776,0.59326 -0.58228,1.07666 -0.38452,0.4834 -0.94482,0.82398 -0.54932,0.34057 -1.27442,0.52734 1.65894,0.36255 2.52686,1.46118 0.86792,1.09863 0.86792,2.83447 0,1.15357 -0.37354,2.03247 -0.36254,0.86792 -1.0437,1.46119 -0.69214,0.60424 -1.68091,0.92285 -0.98876,0.3186 -2.25219,0.3186 z m 0.011,-9.85474 q 1.32935,0 2.04346,-0.69213 0.70313,-0.69214 0.70313,-2.0105 0,-1.32935 -0.69214,-2.04346 -0.70313,-0.70312 -2.05445,-0.70312 -1.32934,0 -2.03247,0.70312 -0.70312,0.70313 -0.70312,2.04346 0,1.31836 0.70312,2.0105 0.70313,0.69213 2.03247,0.69213 z m 0.033,8.1189 q 0.7251,0 1.29639,-0.20874 0.57129,-0.20874 0.97778,-0.62622 0.4065,-0.41748 0.60425,-0.99976 0.19775,-0.59326 0.19775,-1.34033 0,-0.81299 -0.21972,-1.39526 -0.20874,-0.58228 -0.59326,-0.9668 -0.82398,-0.83496 -2.29615,-0.83496 -1.48315,0 -2.28515,0.82398 -0.38452,0.3955 -0.60425,0.98876 -0.20874,0.58228 -0.20874,1.35132 0,0.74707 0.19775,1.35132 0.20874,0.59326 0.61524,1.01074 0.41748,0.42847 0.99975,0.63721 0.59327,0.20874 1.31836,0.20874 z" />
        <path
           id="path3396"
           style="font-style:normal;font-variant:normal;font-weight:normal;font-stretch:normal;font-size:22.5px;font-family:hack;-inkscape-font-specification:hack"
           d="m 169.19875,287.8299 9.01977,0 0,1.80175 -9.01977,0 0,-1.80175 z" />
        <path
           id="path3398"
           style="font-style:normal;font-variant:normal;font-weight:normal;font-stretch:normal;font-size:22.5px;font-family:hack;-inkscape-font-specification:hack"
           d="m 186.68898,295.65216 q -0.52734,0 -1.10962,-0.0549 -0.57129,-0.044 -1.16455,-0.15381 -0.50537,-0.0879 -1.10962,-0.2417 -0.60425,-0.15381 -1.19751,-0.36255 l 0,-2.24121 q 0.5603,0.28565 1.09863,0.51636 0.53833,0.23071 1.10962,0.38452 0.54932,0.14282 1.07666,0.21973 0.53833,0.0659 1.08765,0.0659 1.82373,0 2.80151,-0.82397 0.49439,-0.41748 0.73609,-1.01074 0.2417,-0.59326 0.2417,-1.32935 0,-1.47217 -0.9668,-2.30713 -0.47241,-0.40649 -1.14258,-0.61523 -0.67016,-0.21973 -1.51611,-0.21973 l -1.6919,0 0,-1.82373 1.6919,0 q 1.53808,0 2.39502,-0.67016 0.84595,-0.65918 0.84595,-1.90064 0,-0.59326 -0.19776,-1.07666 -0.19775,-0.49438 -0.59326,-0.83496 -0.78003,-0.67017 -2.30713,-0.67017 -0.45044,0 -0.95581,0.0549 -0.50537,0.0549 -1.03271,0.16479 -1.06568,0.21973 -2.18628,0.65918 l 0,-2.04346 q 1.32934,-0.34057 2.37304,-0.52734 1.01075,-0.17578 1.85669,-0.17578 1.15357,0 2.12036,0.29663 0.97779,0.29663 1.70288,0.90088 0.68116,0.57129 1.04371,1.37329 0.37353,0.802 0.37353,1.80176 0,0.71411 -0.19775,1.27441 -0.18677,0.5603 -0.54932,0.99976 -0.74707,0.88989 -2.19727,1.27441 1.615,0.42847 2.47193,1.51611 0.45044,0.57129 0.64819,1.26343 0.20874,0.69214 0.20874,1.48316 0,1.09863 -0.37353,1.99951 -0.37354,0.88989 -1.13159,1.53808 -0.74707,0.63721 -1.81275,0.9668 -1.05469,0.32959 -2.44995,0.32959 z" />
        <path
           id="path3400"
           style="font-style:normal;font-variant:normal;font-weight:normal;font-stretch:normal;font-size:22.5px;font-family:hack;-inkscape-font-specification:hack"
           d="m 203.77272,278.93097 2.0874,0 -8.63525,18.48999 -2.09839,0 8.64624,-18.48999 z" />
        <path
           id="path3402"
           style="font-style:normal;font-variant:normal;font-weight:normal;font-stretch:normal;font-size:22.5px;font-family:hack;-inkscape-font-specification:hack"
           d="m 213.34181,295.65216 q -0.40649,0 -0.83496,-0.0439 -0.41748,-0.033 -0.802,-0.12085 -0.35156,-0.0769 -0.76904,-0.20874 -0.41748,-0.13184 -0.80201,-0.28565 l 0,-2.04346 q 0.35157,0.20874 0.7251,0.36255 0.38452,0.15381 0.74707,0.25269 0.79102,0.21972 1.61499,0.21972 2.12036,0 3.20801,-1.59301 1.07666,-1.59302 1.07666,-4.66919 -0.25269,0.5603 -0.63721,0.98877 -0.38452,0.42846 -0.81298,0.70312 -0.91187,0.58228 -2.26319,0.58228 -1.09863,0 -1.99951,-0.36255 -0.90088,-0.37354 -1.54907,-1.09863 -1.30738,-1.47217 -1.30738,-4.0979 0,-1.29639 0.31861,-2.35108 0.32959,-1.06567 1.02173,-1.81274 0.65918,-0.7251 1.61499,-1.07666 0.95581,-0.36255 2.17529,-0.36255 1.50513,0 2.50488,0.53833 0.99976,0.52734 1.64795,1.5271 0.70313,1.09863 1.02173,2.66968 0.3186,1.57104 0.3186,3.54858 0,2.17529 -0.38452,3.81226 -0.37353,1.63696 -1.19751,2.74658 -0.81299,1.09863 -1.98852,1.63696 -1.17554,0.53833 -2.64771,0.53833 z m 0.71411,-7.59155 q 0.76905,0 1.32935,-0.26367 0.5603,-0.27466 0.93384,-0.74707 0.38452,-0.4834 0.59326,-1.18653 0.20874,-0.71411 0.20874,-1.64795 0,-0.93383 -0.20874,-1.63696 -0.20874,-0.71411 -0.59326,-1.19751 -0.37354,-0.47241 -0.93384,-0.73608 -0.5603,-0.27466 -1.32935,-0.27466 -0.68115,0 -1.24145,0.23071 -0.5603,0.23071 -0.94483,0.73609 -0.74707,0.97778 -0.74707,2.87841 0,1.90064 0.74707,2.87842 0.37354,0.49439 0.92286,0.73609 0.5603,0.23071 1.26342,0.23071 z" />
        <path
           id="path3404"
           style="font-style:normal;font-variant:normal;font-weight:normal;font-stretch:normal;font-size:22.5px;font-family:hack;-inkscape-font-specification:hack"
           d="m 236.28127,293.86139 q 0,-0.20874 0.0549,-0.36255 0.0659,-0.16479 0.21972,-0.3186 0.62622,-0.65918 1.48316,-1.56006 0.85693,-0.91187 1.83471,-1.97754 0.56031,-0.60425 0.90088,-0.97778 0.34058,-0.37354 0.56031,-0.61524 0.21972,-0.2417 0.35156,-0.39551 0.14282,-0.16479 0.29663,-0.35156 0.29663,-0.35156 0.51636,-0.63721 0.23071,-0.29663 0.40649,-0.54931 0.18677,-0.26367 0.3186,-0.50537 0.14283,-0.2417 0.25269,-0.4834 0.18677,-0.41748 0.28564,-0.83496 0.0989,-0.41748 0.0989,-0.87891 0,-0.65918 -0.19775,-1.19751 -0.19776,-0.54932 -0.60425,-0.93384 -0.81299,-0.78003 -2.23022,-0.78003 -0.98877,0 -2.08741,0.36255 -1.09863,0.36255 -2.3291,1.09864 l 0,-2.24122 q 0.57129,-0.27465 1.13159,-0.47241 0.57129,-0.20874 1.09864,-0.34057 0.54931,-0.14283 1.08764,-0.20874 0.53833,-0.0659 1.06568,-0.0659 1.14257,0 2.14233,0.30762 0.99976,0.30761 1.74683,0.96679 0.65918,0.58228 1.05468,1.42823 0.39551,0.83496 0.39551,1.88964 0,0.56031 -0.12085,1.09864 -0.12085,0.52734 -0.36255,1.06567 -0.12085,0.27466 -0.27466,0.53833 -0.1538,0.26367 -0.35156,0.53833 -0.18677,0.27466 -0.42846,0.58228 -0.2417,0.29663 -0.53833,0.64819 -0.31861,0.37353 -0.75806,0.86792 -0.43945,0.49438 -1.02173,1.1206 -0.41748,0.45044 -0.76904,0.81299 -0.35157,0.35157 -0.75806,0.75806 -0.39551,0.39551 -0.91186,0.91186 -0.50538,0.51636 -1.24146,1.29639 l 7.64648,0 0,1.86768 -9.96459,0 0,-1.47217 z" />
        <path
           id="path3406"
           style="font-style:normal;font-variant:normal;font-weight:normal;font-stretch:normal;font-size:22.5px;font-family:hack;-inkscape-font-specification:hack"
           d="m 254.91408,295.65216 q -2.63672,0 -3.96607,-2.15332 -1.34033,-2.16431 -1.34033,-6.3501 0,-4.19677 1.34033,-6.36108 1.32935,-2.15332 3.96607,-2.15332 1.29638,0 2.29614,0.52734 0.99976,0.52735 1.68091,1.62598 0.65918,1.05469 0.99975,2.63672 0.34058,1.57104 0.34058,3.72436 0,2.15332 -0.34058,3.72437 -0.34057,1.57104 -0.99975,2.62573 -1.35132,2.15332 -3.97705,2.15332 z m 0,-1.75781 q 0.802,0 1.37329,-0.42847 0.58227,-0.42847 0.95581,-1.24145 0.75806,-1.65894 0.75806,-5.07569 0,-3.42773 -0.75806,-5.07568 -0.37354,-0.82398 -0.94482,-1.25244 -0.57129,-0.42847 -1.38428,-0.42847 -1.54907,0 -2.30713,1.66992 -0.38452,0.82398 -0.58228,2.07642 -0.18676,1.24145 -0.18676,3.01025 0,3.42774 0.76904,5.07569 0.39551,0.85693 0.9668,1.26342 0.58227,0.4065 1.34033,0.4065 z m 0.022,-2.91138 q -0.16479,0 -0.30762,-0.12085 -0.13183,-0.13183 -0.2417,-0.34057 -0.0989,-0.21973 -0.17578,-0.50538 -0.0769,-0.29663 -0.14282,-0.61523 -0.0549,-0.26367 -0.0989,-0.58228 -0.0439,-0.3186 -0.0769,-0.6372 -0.033,-0.32959 -0.0549,-0.61524 -0.022,-0.28564 -0.022,-0.47241 0,-0.13183 0.011,-0.38452 0.011,-0.25269 0.033,-0.5603 0.033,-0.30762 0.0659,-0.63721 0.0439,-0.34058 0.10986,-0.64819 0.30762,-1.57105 0.85694,-1.57105 0.30761,0 0.51635,0.41748 0.21973,0.41748 0.37354,1.18653 0.0549,0.27465 0.0989,0.59326 0.044,0.3186 0.0769,0.6372 0.033,0.30762 0.0439,0.59327 0.022,0.27465 0.022,0.46142 0,0.10986 -0.011,0.34058 0,0.23071 -0.022,0.53833 -0.022,0.29663 -0.0659,0.6372 -0.033,0.34058 -0.0879,0.68116 -0.14282,0.81299 -0.38452,1.20849 -0.23072,0.39551 -0.51636,0.39551 z" />
        <path
           id="path3408"
           style="font-style:normal;font-variant:normal;font-weight:normal;font-stretch:normal;font-size:22.5px;font-family:hack;-inkscape-font-specification:hack"
           d="m 264.64796,293.46588 3.44971,0 0,-12.5354 -3.71338,0.83496 0,-2.02148 3.69141,-0.81299 2.21924,0 0,14.53491 3.40576,0 0,1.86768 -9.05274,0 0,-1.86768 z" />
        <path
           id="path3410"
           style="font-style:normal;font-variant:normal;font-weight:normal;font-stretch:normal;font-size:22.5px;font-family:hack;-inkscape-font-specification:hack"
           d="m 282.17116,295.65216 q -1.50513,0 -2.50488,-0.52734 -0.99976,-0.53833 -1.64795,-1.53809 -0.69214,-1.07666 -1.02173,-2.63672 -0.31861,-1.56006 -0.31861,-3.57055 0,-2.26319 0.39551,-3.87818 0.4065,-1.61499 1.19751,-2.69165 0.79102,-1.07666 1.94458,-1.62598 1.16455,-0.54931 2.66968,-0.54931 0.45044,0 0.86792,0.0439 0.42847,0.044 0.78003,0.12085 0.43945,0.0879 0.82397,0.21973 0.39551,0.13184 0.74707,0.27466 l 0,2.04346 q -0.32959,-0.19776 -0.71411,-0.36255 -0.38452,-0.1648 -0.75805,-0.26368 -0.38453,-0.10986 -0.80201,-0.1538 -0.41748,-0.0549 -0.802,-0.0549 -2.14233,0 -3.21899,1.58204 -1.08765,1.604 -1.08765,4.68017 0.52734,-1.09863 1.46118,-1.69189 0.49439,-0.30762 1.03272,-0.43946 0.53833,-0.14282 1.19751,-0.14282 1.09863,0 2.0105,0.36255 0.92285,0.36255 1.58203,1.08765 0.65918,0.72509 0.97778,1.7688 0.3186,1.0437 0.3186,2.34008 0,1.34034 -0.34057,2.38404 -0.32959,1.03271 -0.98877,1.75781 -0.65918,0.7251 -1.61499,1.09863 -0.94483,0.36255 -2.18628,0.36255 z m 0,-1.73584 q 0.71411,0 1.26343,-0.2417 0.5603,-0.2417 0.93383,-0.73608 0.74707,-0.97779 0.74707,-2.86743 0,-1.90064 -0.74707,-2.87842 -0.38452,-0.50537 -0.94482,-0.73609 -0.5603,-0.23071 -1.24146,-0.23071 -0.76904,0 -1.32934,0.27466 -0.5603,0.26367 -0.93384,0.73608 -0.38452,0.4834 -0.60425,1.19751 -0.20874,0.70313 -0.20874,1.63697 0,0.93383 0.20874,1.64795 0.21973,0.70312 0.60425,1.18652 0.37354,0.47241 0.93384,0.74707 0.5603,0.26367 1.31836,0.26367 z" />
      </g>
    </g>
  </g>
</svg>
