
<svg viewBox="0 0 500 820" version="1.1" xmlns="http://www.w3.org/2000/svg" xml:space="preserve"
     style="fill-rule: evenodd; clip-rule: evenodd; stroke-linecap: round;">
    <defs>
        <linearGradient x1="0" y1="0" x2="1" y2="0" gradientUnits="userSpaceOnUse" gradientTransform="matrix(2.30025e-15,-37.566,37.566,2.30025e-15,416.455,540.999)" id="map-marker-38-f">
            <stop offset="0" stop-color="rgba{{ fill0 }}"/>
            <stop offset="1" stop-color="rgba{{ fill1 }}"/>
        </linearGradient>
        <linearGradient x1="0" y1="0" x2="1" y2="0"
                        gradientUnits="userSpaceOnUse"
                        gradientTransform="matrix(1.16666e-15,-19.053,19.053,1.16666e-15,414.482,522.486)"
                        id="map-marker-38-s">
            <stop offset="0" stop-color="rgba{{ stroke0 }}"/>
            <stop offset="1" stop-color="rgba{{ stroke1 }}"/>
        </linearGradient>
    </defs>
    <g transform="matrix(19.5417,0,0,19.5417,-7889.1,-9807.44)">
        <path fill="#FFFFFF" d="M421.2,515.5c0,2.6-2.1,4.7-4.7,4.7c-2.6,0-4.7-2.1-4.7-4.7c0-2.6,2.1-4.7,4.7-4.7 C419.1,510.8,421.2,512.9,421.2,515.5z"/>
        <path d="m 416.544,503.612 c -6.573,0 -12.044,5.691 -12.044,11.866 0,2.778 1.564,6.308 2.694,8.746 l 9.306,17.872 9.262,-17.872 c 1.13,-2.438 2.738,-5.791 2.738,-8.746 0,-6.175 -5.383,-11.866 -11.956,-11.866 z" stroke-width="1.1px" fill="url(#map-marker-38-f)" stroke="url(#map-marker-38-s)" test="{{ stroke0 }}"/>
    </g>
</svg>
