<?xml version="1.0" encoding="UTF-8"?>
<svg width="172px" height="46px" viewBox="0 0 172 46" version="1.1" xmlns="http://www.w3.org/2000/svg" xmlns:xlink="http://www.w3.org/1999/xlink">
    <!-- Generator: Sketch 43.1 (39012) - http://www.bohemiancoding.com/sketch -->
    <title>bornhack-2017-logo-small</title>
    <desc>Created with Sketch.</desc>
    <defs>
        <polygon id="path-1" points="2.94080006e-15 43 171 43 171 0 2.94080006e-15 0"></polygon>
    </defs>
    <g id="Page-1" stroke="none" stroke-width="1" fill="none" fill-rule="evenodd">
        <g id="bornhack-2017-logo-small" transform="translate(87.000000, 24.000000) scale(-1, 1) rotate(-180.000000) translate(-87.000000, -24.000000) translate(0.000000, 0.000000)">
            <g id="g16" transform="translate(-0.000000, 5.000000)">
                <g id="g18-Clipped">
                    <mask id="mask-2" fill="white">
                        <use xlink:href="#path-1"></use>
                    </mask>
                    <g id="path22"></g>
                    <g id="g18" mask="url(#mask-2)">
                        <g transform="translate(0.000000, 3.981481)">
                            <g id="g24" transform="translate(18.957865, 0.400162)" stroke-linecap="square">
                                <polygon id="path26" stroke="#000000" stroke-width="2.17500001" points="5.95822019 36.4410331 5.95822019 35.3281043 8.11708197 33.9571335 9.15381229 30.7877485 10.1031554 30.4459907 10.6215205 30.7020629 11.6582508 29.7605054 12.6075939 29.846191 13.3851417 28.2181633 14.1626894 28.2181633 16.8399163 27.0195487 17.2718873 26.419749 17.7038583 26.5054347 19.2579607 27.2766058 19.7763259 26.7624917 20.8120631 24.2785921 22.8845307 22.5658635 23.7484726 22.4801779 27.2896415 20.0819639 29.6212917 19.1394215 30.4852336 19.3964786 32.3849128 17.5980643 32.039336 16.9125789 32.2121244 16.6555219 31.3481825 15.8843509 31.7801535 14.4286793 31.5209709 14.1716223 32.1257302 12.7159508 32.2121244 11.5163514 31.2617883 10.4034225 31.2617883 9.2038231 30.3124452 8.34696637 30.3124452 7.66148099 29.5348975 6.71992349 29.7940801 5.86306676 30.1396568 4.75013791 30.3124452 4.23602388 27.5488241 0.895267544 26.7712764 0.295467836 25.6491449 0.980953216 23.8348668 1.15232456 23.0583121 1.58075292 19.3443549 2.43760965 17.4446757 3.72190984 16.8399163 3.5505385 15.6303976 4.75013791 11.8310392 6.12012378 11.6582508 6.63423782 10.4487321 6.46286647 8.03068778 7.83383723 6.90855631 7.40540887 4.14493518 9.2038231 3.36738744 10.573809 2.50344552 10.573809 1.38131405 11.8590941 1.29491985 12.6302651 0.603766313 12.9720229 1.12213147 14.257308 1.20852566 15.6272939 1.72689082 19.0537359 0.690160505 22.73625 1.55410243 27.2766058 3.8857526 32.501462 4.23132937 35.4984907"></polygon>
                            </g>
                            <g id="g28" transform="translate(56.429012, 8.695717)">
                                <path d="M0,0 L6.55602828,0 C9.13990977,0 11.121018,0.578132066 12.4963738,1.73538109 C13.1905065,2.31843762 13.7048995,3.02756043 14.0415389,3.86077973 C14.3881087,4.69399903 14.5608971,5.63752632 14.5608971,6.68939181 C14.5608971,7.51276218 14.4566283,8.23665838 14.2461045,8.8620653 C14.0355807,9.4766384 13.7207881,10.0291633 13.3007335,10.518655 C12.4596315,11.4986233 11.2679874,12.0974381 9.72381535,12.3160843 C10.1438699,12.4204829 10.5321472,12.5770809 10.8896404,12.7848933 C11.2471336,12.9828567 11.5569611,13.2172612 11.8191228,13.4881067 C12.1130616,13.7904688 12.4288473,14.2179123 12.7644937,14.7704371 C13.1110635,15.3121282 13.5162225,16.0409488 13.9779846,16.957884 L17.1765558,23.3350648 L13.7575304,23.3350648 L10.9522017,17.4424513 C10.5430706,16.5777154 10.1538002,15.8794264 9.78637666,15.3475843 C9.42888345,14.8167271 9.09323705,14.431634 8.77745138,14.1913202 C8.45173534,13.9411574 8.06842318,13.7589522 7.62751488,13.6447047 C7.19653695,13.5304571 6.73477489,13.4723484 6.24024261,13.4723484 L3.19956424,13.4723484 L3.19956424,23.3350648 L0,23.3350648 L0,0 Z M6.68214394,10.8781408 C8.20546224,10.8781408 9.33951015,10.5393377 10.0852807,9.86271637 C10.4536973,9.52883772 10.7317476,9.10139425 10.9214176,8.58038596 C11.1100946,8.06036257 11.2044331,7.46056287 11.2044331,6.78394152 C11.2044331,6.10633528 11.1051294,5.50653558 10.904536,4.98552729 C10.715859,4.4655039 10.4219202,4.02230214 10.0227194,3.65789181 C9.64437242,3.32401316 9.16672176,3.06301657 8.58877441,2.87588694 C8.02175045,2.68777242 7.34350639,2.5951925 6.55602828,2.5951925 L3.19956424,2.5951925 L3.19956424,10.8781408 L6.68214394,10.8781408 L6.68214394,10.8781408 Z" id="path30" fill="#000000" fill-rule="nonzero"></path>
                            </g>
                            <g id="g32" transform="translate(75.780617, 8.695717)">
                                <polygon id="path34" fill="#000000" fill-rule="nonzero" points="0 0 4.03371507 0 11.9770156 19.208364 11.9770156 0 15.0494712 0 15.0494712 23.3350648 11.0157561 23.3350648 3.07344858 4.12571589 3.07344858 23.3350648 0 23.3350648"></polygon>
                            </g>
                            <g id="g36" transform="translate(95.163799, 8.695717)">
                                <polygon id="path38" fill="#000000" fill-rule="nonzero" points="0 0 3.19956424 0 3.19956424 9.56527875 11.9134613 9.56527875 11.9134613 0 15.1130255 0 15.1130255 23.3350648 11.9134613 23.3350648 11.9134613 12.2225195 3.19956424 12.2225195 3.19956424 23.3350648 0 23.3350648"></polygon>
                            </g>
                            <g id="g40" transform="translate(133.596901, 7.861808)">
                                <path d="M9.93036698,24.6223197 C8.45967963,24.6223197 7.13099653,24.3613231 5.94332464,23.8403148 C4.76657615,23.3193065 3.7586439,22.5225283 2.91754182,21.4489951 C2.08835618,20.3862958 1.46274306,19.1098748 1.04268853,17.6207169 C0.632564377,16.1197403 0.427998817,14.4267096 0.427998817,12.5406399 C0.427998817,10.6545702 0.632564377,8.96153947 1.04268853,7.46154776 C1.46274306,5.96057115 2.09332136,4.67430117 2.93343041,3.60076803 C3.77353945,2.52723489 4.78246474,1.73045663 5.95921323,1.20944834 C7.13596172,0.677606238 8.45967963,0.411685185 9.93036698,0.411685185 C10.4348296,0.411685185 10.9184385,0.443201754 11.3802006,0.506234893 C11.852886,0.557449318 12.2788988,0.631316277 12.6562527,0.724881092 C13.0345997,0.818445906 13.449689,0.954361111 13.9015207,1.13065692 C14.3533524,1.29808869 14.7684418,1.48521832 15.1467888,1.69401559 L15.1467888,4.92840351 C14.3791714,4.29314766 13.5440275,3.80858041 12.6403641,3.47568665 C12.1885324,3.30825487 11.7376938,3.18317349 11.2858621,3.1004425 C10.8439607,3.01672661 10.3871639,2.97536111 9.9144784,2.97536111 C8.89562274,2.97536111 7.99692453,3.17332456 7.22036983,3.56925146 C6.45275247,3.96517836 5.8122438,4.55906871 5.29685775,5.35092251 C4.26707869,6.93463012 3.75268568,9.32594981 3.75268568,12.5248816 C3.75268568,15.7139644 4.26707869,18.0993748 5.29685775,19.6830824 C6.32663681,21.26679 7.87676709,22.0586438 9.94625557,22.0586438 C10.418941,22.0586438 10.8757379,22.0172783 11.3166462,21.9345473 C11.769471,21.8508314 12.2203096,21.72575 12.6721413,21.5593031 C13.5440275,21.2362583 14.369241,20.7507061 15.1467888,20.1056014 L15.1467888,23.3399893 C14.3275335,23.7674327 13.4973548,24.0904776 12.6562527,24.3101087 C12.2471216,24.4135224 11.8052203,24.4923138 11.3325348,24.5435283 C10.8707727,24.5967125 10.4030525,24.6223197 9.93036698,24.6223197" id="path42" fill="#000000" fill-rule="nonzero"></path>
                            </g>
                            <g id="g44" transform="translate(153.407686, 8.695717)">
                                <polygon id="path46" fill="#000000" fill-rule="nonzero" points="0 0 3.19992792 0 3.19992792 10.3778153 13.1443346 0 16.8795701 0 7.72273107 9.53474708 17.1477205 23.3350648 13.3022454 23.3350648 5.62718547 11.6443874 3.19992792 14.2070785 3.19992792 23.3350648 0 23.3350648"></polygon>
                            </g>
                            <g id="g48" transform="translate(0.249252, 8.408621)">
                                <path d="M0,23.6374269 L6.9651594,23.6374269 C9.36036392,23.6374269 11.2143634,23.122328 12.528151,22.0901603 C13.8310151,21.0589776 14.4814542,19.5954269 14.4814542,17.6985234 C14.4814542,16.9687178 14.3930739,16.3236131 14.2143273,15.7602544 C14.0355807,15.2077295 13.7833494,14.7339961 13.4576333,14.3380692 C13.1209939,13.9421423 12.6959742,13.6082636 12.1815812,13.3374181 C11.6661951,13.0774064 11.0574636,12.8952013 10.3534006,12.7908026 C11.9084961,12.5514737 13.1209939,11.9004596 13.9938732,10.8367753 C14.423858,10.3059181 14.7505671,9.69626949 14.9710213,9.00881433 C15.1914754,8.32135916 15.3017025,7.55018811 15.3017025,6.69530117 C15.3017025,4.59058528 14.6026047,3.00195322 13.205402,1.92842008 C11.797276,0.845038012 9.71785713,0.303346979 6.9651594,0.303346979 L0,0.303346979 L0,23.6374269 Z M6.90259809,14.0100999 C7.70000656,14.0100999 8.36732722,14.082982 8.90356704,14.2287461 C9.44973722,14.3745102 9.89660374,14.5990658 10.2431735,14.900443 C10.9253898,15.4844844 11.2669944,16.4063441 11.2669944,17.6670068 C11.2669944,18.2924137 11.1835793,18.813422 11.0147631,19.2300317 C10.8469399,19.6574751 10.5947085,20.0012027 10.2590621,20.2621993 C9.57585288,20.7832076 8.45670052,21.0432193 6.90259809,21.0432193 L3.19857121,21.0432193 L3.19857121,14.0100999 L6.90259809,14.0100999 L6.90259809,14.0100999 Z M6.9651594,2.89755458 C8.80327033,2.89755458 10.1220231,3.22059942 10.9204246,3.86668908 C11.7088957,4.50194493 12.1031313,5.55479532 12.1031313,7.02327047 C12.1031313,8.54492982 11.6880419,9.66475292 10.8578633,10.3837247 C10.0167612,11.0928475 8.71985525,11.4474089 6.9651594,11.4474089 L3.19857121,11.4474089 L3.19857121,2.89755458 L6.9651594,2.89755458 L6.9651594,2.89755458 Z" id="path50" fill="#000000" fill-rule="nonzero"></path>
                            </g>
                            <g id="g52" transform="translate(112.465775, 8.408621)">
                                <path d="M7.94429359,23.6374269 L11.8052203,23.6374269 L19.0067224,0.303346979 L15.7128197,0.303346979 L13.9799706,6.38309016 L5.73776604,6.38309016 L4.03570114,0.303346979 L0.74279145,0.303346979 L7.94429359,23.6374269 Z M13.2232767,8.91426462 L9.86681264,20.8551048 L6.5103486,8.91426462 L13.2232767,8.91426462 Z" id="path54" fill="#000000" fill-rule="nonzero"></path>
                            </g>
                        </g>
                    </g>
                </g>
            </g>
            <text id="Make-Tradition" transform="translate(115.000000, 8.000000) scale(1, -1) translate(-115.000000, -8.000000) " font-family="Menlo-Regular, Menlo" font-size="13.8000002" font-weight="normal" fill="#000000">
                <tspan x="56.5" y="13">Make Tradition</tspan>
            </text>
        </g>
    </g>
</svg>