<?xml version="1.0" encoding="UTF-8"?>
<svg width="171px" height="42px" viewBox="0 0 171 42" version="1.1" xmlns="http://www.w3.org/2000/svg" xmlns:xlink="http://www.w3.org/1999/xlink">
    <!-- Generator: Sketch 43.1 (39012) - http://www.bohemiancoding.com/sketch -->
    <title>bornhack-2017-logo-small</title>
    <desc>Created with Sketch.</desc>
    <defs>
        <polygon id="path-1" points="2.94080006e-15 43 171 43 171 0 2.94080006e-15 0"></polygon>
    </defs>
    <g id="Page-1" stroke="none" stroke-width="1" fill="none" fill-rule="evenodd">
        <g id="bornhack-2017-logo-small" transform="translate(85.500000, 21.500000) scale(-1, 1) rotate(-180.000000) translate(-85.500000, -21.500000) translate(0.000000, 0.000000)">
            <g id="g16" transform="translate(-0.000000, 0.000000)">
                <g id="g18-Clipped">
                    <mask id="mask-2" fill="white">
                        <use xlink:href="#path-1"></use>
                    </mask>
                    <g id="path22"></g>
                    <g id="g18" mask="url(#mask-2)">
                        <g transform="translate(0.000000, 3.981481)">
                            <g id="g24" transform="translate(18.957865, 0.400162)" stroke-linecap="square">
                                <polygon id="path26" stroke="#000000" stroke-width="2.17500001" points="5.95822019 36.4410331 5.95822019 35.3281043 8.11708197 33.9571335 9.15381229 30.7877485 10.1031554 30.4459907 10.6215205 30.7020629 11.6582508 29.7605054 12.6075939 29.846191 13.3851417 28.2181633 14.1626894 28.2181633 16.8399163 27.0195487 17.2718873 26.419749 17.7038583 26.5054347 19.2579607 27.2766058 19.7763259 26.7624917 20.8120631 24.2785921 22.8845307 22.5658635 23.7484726 22.4801779 27.2896415 20.0819639 29.6212917 19.1394215 30.4852336 19.3964786 32.3849128 17.5980643 32.039336 16.9125789 32.2121244 16.6555219 31.3481825 15.8843509 31.7801535 14.4286793 31.5209709 14.1716223 32.1257302 12.7159508 32.2121244 11.5163514 31.2617883 10.4034225 31.2617883 9.2038231 30.3124452 8.34696637 30.3124452 7.66148099 29.5348975 6.71992349 29.7940801 5.86306676 30.1396568 4.75013791 30.3124452 4.23602388 27.5488241 0.895267544 26.7712764 0.295467836 25.6491449 0.980953216 23.8348668 1.15232456 23.0583121 1.58075292 19.3443549 2.43760965 17.4446757 3.72190984 16.8399163 3.5505385 15.6303976 4.75013791 11.8310392 6.12012378 11.6582508 6.63423782 10.4487321 6.46286647 8.03068778 7.83383723 6.90855631 7.40540887 4.14493518 9.2038231 3.36738744 10.573809 2.50344552 10.573809 1.38131405 11.8590941 1.29491985 12.6302651 0.603766313 12.9720229 1.12213147 14.257308 1.20852566 15.6272939 1.72689082 19.0537359 0.690160505 22.73625 1.55410243 27.2766058 3.8857526 32.501462 4.23132937 35.4984907"></polygon>
                            </g>
                            <g id="g28" transform="translate(56.429012, 8.695717)">
                                <path d="M0,0 L6.55602828,0 C9.13990977,0 11.121018,0.578132066 12.4963738,1.73538109 C13.1905065,2.31843762 13.7048995,3.02756043 14.0415389,3.86077973 C14.3881087,4.69399903 14.5608971,5.63752632 14.5608971,6.68939181 C14.5608971,7.51276218 14.4566283,8.23665838 14.2461045,8.8620653 C14.0355807,9.4766384 13.7207881,10.0291633 13.3007335,10.518655 C12.4596315,11.4986233 11.2679874,12.0974381 9.72381535,12.3160843 C10.1438699,12.4204829 10.5321472,12.5770809 10.8896404,12.7848933 C11.2471336,12.9828567 11.5569611,13.2172612 11.8191228,13.4881067 C12.1130616,13.7904688 12.4288473,14.2179123 12.7644937,14.7704371 C13.1110635,15.3121282 13.5162225,16.0409488 13.9779846,16.957884 L17.1765558,23.3350648 L13.7575304,23.3350648 L10.9522017,17.4424513 C10.5430706,16.5777154 10.1538002,15.8794264 9.78637666,15.3475843 C9.42888345,14.8167271 9.09323705,14.431634 8.77745138,14.1913202 C8.45173534,13.9411574 8.06842318,13.7589522 7.62751488,13.6447047 C7.19653695,13.5304571 6.73477489,13.4723484 6.24024261,13.4723484 L3.19956424,13.4723484 L3.19956424,23.3350648 L0,23.3350648 L0,0 Z M6.68214394,10.8781408 C8.20546224,10.8781408 9.33951015,10.5393377 10.0852807,9.86271637 C10.4536973,9.52883772 10.7317476,9.10139425 10.9214176,8.58038596 C11.1100946,8.06036257 11.2044331,7.46056287 11.2044331,6.78394152 C11.2044331,6.10633528 11.1051294,5.50653558 10.904536,4.98552729 C10.715859,4.4655039 10.4219202,4.02230214 10.0227194,3.65789181 C9.64437242,3.32401316 9.16672176,3.06301657 8.58877441,2.87588694 C8.02175045,2.68777242 7.34350639,2.5951925 6.55602828,2.5951925 L3.19956424,2.5951925 L3.19956424,10.8781408 L6.68214394,10.8781408 L6.68214394,10.8781408 Z" id="path30" fill="#000000" fill-rule="nonzero"></path>
                            </g>
                            <g id="g32" transform="translate(75.780617, 8.695717)">
                                <polygon id="path34" fill="#000000" fill-rule="nonzero" points="0 0 4.03371507 0 11.9770156 19.208364 11.9770156 0 15.0494712 0 15.0494712 23.3350648 11.0157561 23.3350648 3.07344858 4.12571589 3.07344858 23.3350648 0 23.3350648"></polygon>
                            </g>
                            <g id="g36" transform="translate(95.163799, 8.695717)">
                                <polygon id="path38" fill="#000000" fill-rule="nonzero" points="0 0 3.19956424 0 3.19956424 9.56527875 11.9134613 9.56527875 11.9134613 0 15.1130255 0 15.1130255 23.3350648 11.9134613 23.3350648 11.9134613 12.2225195 3.19956424 12.2225195 3.19956424 23.3350648 0 23.3350648"></polygon>
                            </g>
                            <g id="g40" transform="translate(133.596901, 7.861808)">
                                <path d="M9.93036698,24.6223197 C8.45967963,24.6223197 7.13099653,24.3613231 5.94332464,23.8403148 C4.76657615,23.3193065 3.7586439,22.5225283 2.91754182,21.4489951 C2.08835618,20.3862958 1.46274306,19.1098748 1.04268853,17.6207169 C0.632564377,16.1197403 0.427998817,14.4267096 0.427998817,12.5406399 C0.427998817,10.6545702 0.632564377,8.96153947 1.04268853,7.46154776 C1.46274306,5.96057115 2.09332136,4.67430117 2.93343041,3.60076803 C3.77353945,2.52723489 4.78246474,1.73045663 5.95921323,1.20944834 C7.13596172,0.677606238 8.45967963,0.411685185 9.93036698,0.411685185 C10.4348296,0.411685185 10.9184385,0.443201754 11.3802006,0.506234893 C11.852886,0.557449318 12.2788988,0.631316277 12.6562527,0.724881092 C13.0345997,0.818445906 13.449689,0.954361111 13.9015207,1.13065692 C14.3533524,1.29808869 14.7684418,1.48521832 15.1467888,1.69401559 L15.1467888,4.92840351 C14.3791714,4.29314766 13.5440275,3.80858041 12.6403641,3.47568665 C12.1885324,3.30825487 11.7376938,3.18317349 11.2858621,3.1004425 C10.8439607,3.01672661 10.3871639,2.97536111 9.9144784,2.97536111 C8.89562274,2.97536111 7.99692453,3.17332456 7.22036983,3.56925146 C6.45275247,3.96517836 5.8122438,4.55906871 5.29685775,5.35092251 C4.26707869,6.93463012 3.75268568,9.32594981 3.75268568,12.5248816 C3.75268568,15.7139644 4.26707869,18.0993748 5.29685775,19.6830824 C6.32663681,21.26679 7.87676709,22.0586438 9.94625557,22.0586438 C10.418941,22.0586438 10.8757379,22.0172783 11.3166462,21.9345473 C11.769471,21.8508314 12.2203096,21.72575 12.6721413,21.5593031 C13.5440275,21.2362583 14.369241,20.7507061 15.1467888,20.1056014 L15.1467888,23.3399893 C14.3275335,23.7674327 13.4973548,24.0904776 12.6562527,24.3101087 C12.2471216,24.4135224 11.8052203,24.4923138 11.3325348,24.5435283 C10.8707727,24.5967125 10.4030525,24.6223197 9.93036698,24.6223197" id="path42" fill="#000000" fill-rule="nonzero"></path>
                            </g>
                            <g id="g44" transform="translate(153.407686, 8.695717)">
                                <polygon id="path46" fill="#000000" fill-rule="nonzero" points="0 0 3.19992792 0 3.19992792 10.3778153 13.1443346 0 16.8795701 0 7.72273107 9.53474708 17.1477205 23.3350648 13.3022454 23.3350648 5.62718547 11.6443874 3.19992792 14.2070785 3.19992792 23.3350648 0 23.3350648"></polygon>
                            </g>
                            <g id="g48" transform="translate(0.249252, 8.408621)">
                                <path d="M0,23.6374269 L6.9651594,23.6374269 C9.36036392,23.6374269 11.2143634,23.122328 12.528151,22.0901603 C13.8310151,21.0589776 14.4814542,19.5954269 14.4814542,17.6985234 C14.4814542,16.9687178 14.3930739,16.3236131 14.2143273,15.7602544 C14.0355807,15.2077295 13.7833494,14.7339961 13.4576333,14.3380692 C13.1209939,13.9421423 12.6959742,13.6082636 12.1815812,13.3374181 C11.6661951,13.0774064 11.0574636,12.8952013 10.3534006,12.7908026 C11.9084961,12.5514737 13.1209939,11.9004596 13.9938732,10.8367753 C14.423858,10.3059181 14.7505671,9.69626949 14.9710213,9.00881433 C15.1914754,8.32135916 15.3017025,7.55018811 15.3017025,6.69530117 C15.3017025,4.59058528 14.6026047,3.00195322 13.205402,1.92842008 C11.797276,0.845038012 9.71785713,0.303346979 6.9651594,0.303346979 L0,0.303346979 L0,23.6374269 Z M6.90259809,14.0100999 C7.70000656,14.0100999 8.36732722,14.082982 8.90356704,14.2287461 C9.44973722,14.3745102 9.89660374,14.5990658 10.2431735,14.900443 C10.9253898,15.4844844 11.2669944,16.4063441 11.2669944,17.6670068 C11.2669944,18.2924137 11.1835793,18.813422 11.0147631,19.2300317 C10.8469399,19.6574751 10.5947085,20.0012027 10.2590621,20.2621993 C9.57585288,20.7832076 8.45670052,21.0432193 6.90259809,21.0432193 L3.19857121,21.0432193 L3.19857121,14.0100999 L6.90259809,14.0100999 L6.90259809,14.0100999 Z M6.9651594,2.89755458 C8.80327033,2.89755458 10.1220231,3.22059942 10.9204246,3.86668908 C11.7088957,4.50194493 12.1031313,5.55479532 12.1031313,7.02327047 C12.1031313,8.54492982 11.6880419,9.66475292 10.8578633,10.3837247 C10.0167612,11.0928475 8.71985525,11.4474089 6.9651594,11.4474089 L3.19857121,11.4474089 L3.19857121,2.89755458 L6.9651594,2.89755458 L6.9651594,2.89755458 Z" id="path50" fill="#000000" fill-rule="nonzero"></path>
                            </g>
                            <g id="g52" transform="translate(112.465775, 8.408621)">
                                <path d="M7.94429359,23.6374269 L11.8052203,23.6374269 L19.0067224,0.303346979 L15.7128197,0.303346979 L13.9799706,6.38309016 L5.73776604,6.38309016 L4.03570114,0.303346979 L0.74279145,0.303346979 L7.94429359,23.6374269 Z M13.2232767,8.91426462 L9.86681264,20.8551048 L6.5103486,8.91426462 L13.2232767,8.91426462 Z" id="path54" fill="#000000" fill-rule="nonzero"></path>
                            </g>
                        </g>
                    </g>
                </g>
            </g>
            <g id="text56" transform="translate(98.623256, 5.972222) scale(-1, 1) rotate(-180.000000) translate(-98.623256, -5.972222) translate(56.469767, 0.796296)" fill="#000000">
                <path d="M0,0.0318829564 L1.8151662,0.0318829564 L4.50288598,7.95160934 L7.17149874,0.0318829564 L8.96755793,0.0318829564 L8.96755793,9.39909556 L7.76381614,9.39909556 L7.76381614,3.87059091 C7.76381614,3.67929222 7.7680621,3.36259135 7.77655414,2.92047881 C7.78504619,2.47836627 7.78929215,2.00437772 7.78929215,1.49849895 L5.12067939,9.39909556 L3.86598556,9.39909556 L1.17826578,1.49849895 L1.17826578,1.78544556 C1.17826578,2.01500399 1.18357323,2.36465025 1.19418829,2.83439483 C1.20480335,3.3041394 1.2101108,3.64953464 1.2101108,3.87059091 L1.2101108,9.39909556 L0,9.39909556 L0,0.0318829564 Z M11.9864659,8.36608777 C12.2284893,8.55738646 12.5150916,8.65303438 12.8462815,8.65303438 C13.2496538,8.65303438 13.6402821,8.55951197 14.0181783,8.37246436 C14.6550819,8.06213537 14.9735289,7.55413867 14.9735289,6.84845904 L14.9735289,5.92385331 C14.8334101,6.01312603 14.6529568,6.08751885 14.4321635,6.147034 C14.2113703,6.20654915 13.9948263,6.24905933 13.7825251,6.27456583 L13.0883037,6.3638381 C12.6721933,6.41910217 12.3601152,6.50624805 12.15206,6.62527835 C11.79964,6.82507921 11.6234327,7.14390558 11.6234327,7.58176704 C11.6234327,7.91335145 11.7444426,8.17478907 11.9864659,8.36608777 Z M14.4003185,5.26068781 C14.663572,5.22667916 14.8397794,5.11615268 14.9289459,4.92910507 C14.9798982,4.82707909 15.0053739,4.68041896 15.0053739,4.48912027 C15.0053739,4.09802071 14.8663187,3.81426524 14.5882041,3.63784533 C14.3100896,3.46142542 13.9120308,3.37321679 13.3940159,3.37321679 C12.7953265,3.37321679 12.3707304,3.53475549 12.120215,3.85783773 C11.9800962,4.03638318 11.8888081,4.30207182 11.8463478,4.65491164 L10.7763551,4.65491164 C10.7975852,3.81319738 11.0703882,3.2276196 11.5947722,2.89816074 C12.1191561,2.56870188 12.72739,2.40397492 13.4194919,2.40397492 C14.2219904,2.40397492 14.8737453,2.55701158 15.3747762,2.86308949 C15.871561,3.1691674 16.1199497,3.64528146 16.1199497,4.29144594 L16.1199497,8.22580276 C16.1199497,8.34483306 16.1443639,8.44048097 16.1931932,8.51274937 C16.2420225,8.58501776 16.344987,8.62115142 16.5020899,8.62115142 C16.5530422,8.62115142 16.6103627,8.61796316 16.674053,8.61158653 C16.7377434,8.60520991 16.8056788,8.59564512 16.8778612,8.58289187 L16.8778612,9.43097851 C16.6995282,9.4819915 16.5636574,9.51387414 16.4702449,9.52662738 C16.3768324,9.53938063 16.2494536,9.54575716 16.0881046,9.54575716 C15.6932244,9.54575716 15.4066221,9.40547355 15.2282891,9.12490213 C15.1348765,8.97611426 15.0690642,8.76568885 15.0308499,8.49361959 C14.7973186,8.79969751 14.4618878,9.06538615 14.0245473,9.29069351 C13.5872068,9.51600086 13.1052903,9.62865284 12.5787833,9.62865284 C11.9461257,9.62865284 11.4291801,9.43629426 11.0279308,9.05157133 C10.6266815,8.6668484 10.4260599,8.18542057 10.4260599,7.60727341 C10.4260599,6.97386217 10.6234971,6.48286955 11.0183773,6.13428082 C11.4132575,5.78569209 11.9312647,5.57101566 12.5724143,5.4902451 L14.4003185,5.26068781 Z M17.9733299,0.0318829564 L19.0751676,0.0318829564 L19.0751676,5.47111532 L22.0176476,2.56976629 L23.4825185,2.56976629 L20.8712268,5.1267794 L23.6290056,9.39909556 L22.1641347,9.39909556 L20.0368873,5.95573626 L19.0751676,6.83570586 L19.0751676,9.39909556 L17.9733299,9.39909556 L17.9733299,0.0318829564 Z M28.768792,2.75787573 C29.2231166,2.98530862 29.5691624,3.27969165 29.8069397,3.64103363 C30.036225,3.98537128 30.1890796,4.38709251 30.265508,4.84620938 C30.3334444,5.16078945 30.3674121,5.66240962 30.3674121,6.35108492 L25.3677438,6.35108492 C25.3889739,7.04401131 25.5524434,7.59983196 25.8581571,8.01856354 C26.1638708,8.43729513 26.6372954,8.64665779 27.278445,8.64665779 C27.8771344,8.64665779 28.354805,8.44898543 28.711471,8.0536348 C28.9152801,7.82407636 29.0596428,7.55838772 29.1445633,7.25656089 L30.271877,7.25656089 C30.2421549,7.50737473 30.1434363,7.78687919 29.9757183,8.09508264 C29.8080004,8.40328609 29.6201166,8.65515893 29.4120615,8.85070871 C29.0638875,9.19079528 28.6329225,9.42035027 28.1191536,9.53938057 C27.843162,9.60739788 27.531084,9.64140603 27.18291,9.64140603 C26.3337052,9.64140603 25.6140149,9.33214444 25.0238176,8.71361199 C24.4336202,8.09507955 24.138526,7.22893456 24.138526,6.11515104 C24.138526,5.01837186 24.4357432,4.12778352 25.0301866,3.4433593 C25.6246299,2.75893507 26.4016407,2.4167281 27.3612421,2.4167281 C27.8452888,2.4167281 28.3144675,2.53044284 28.768792,2.75787573 Z M29.1891463,5.43923237 C29.14244,4.94185576 29.0341681,4.54438555 28.8643271,4.2468098 C28.5501213,3.69416912 28.0257452,3.41785293 27.2911831,3.41785293 C26.7646761,3.41785293 26.3230962,3.608086 25.9664302,3.98855785 C25.6097642,4.3690297 25.4208189,4.85258304 25.3995888,5.43923237 L29.1891463,5.43923237 Z M42.1309629,0.0318829564 L42.1309629,1.14778643 L38.9783058,1.14778643 L38.9783058,9.39909556 L37.6917669,9.39909556 L37.6917669,1.14778643 L34.5391098,1.14778643 L34.5391098,0.0318829564 L42.1309629,0.0318829564 Z M42.6914352,2.56976629 L43.780535,2.56976629 L43.780535,3.74943568 C43.8697015,3.51987724 44.0883684,3.24037279 44.4365424,2.91091392 C44.7847164,2.58145506 45.1859596,2.4167281 45.6402842,2.4167281 C45.6615143,2.4167281 45.697605,2.41885361 45.7485573,2.42310469 C45.7995095,2.42735577 45.8865517,2.43585781 46.0096864,2.44861105 L46.0096864,3.6601634 C45.94175,3.64741015 45.8791221,3.63890812 45.8218008,3.63465703 C45.7644795,3.63040595 45.7018516,3.62828044 45.6339152,3.62828044 C45.0564559,3.62828044 44.6127531,3.8142625 44.3027933,4.18623218 C43.9928336,4.55820187 43.837856,4.98649196 43.837856,5.47111532 L43.837856,9.39909556 L42.6914352,9.39909556 L42.6914352,2.56976629 Z M48.2452069,8.36608777 C48.4872303,8.55738646 48.7738326,8.65303438 49.1050225,8.65303438 C49.5083948,8.65303438 49.8990231,8.55951197 50.2769193,8.37246436 C50.9138229,8.06213537 51.2322699,7.55413867 51.2322699,6.84845904 L51.2322699,5.92385331 C51.0921511,6.01312603 50.9116978,6.08751885 50.6909045,6.147034 C50.4701113,6.20654915 50.2535673,6.24905933 50.0412661,6.27456583 L49.3470446,6.3638381 C48.9309343,6.41910217 48.6188562,6.50624805 48.410801,6.62527835 C48.058381,6.82507921 47.8821737,7.14390558 47.8821737,7.58176704 C47.8821737,7.91335145 48.0031835,8.17478907 48.2452069,8.36608777 Z M50.6590595,5.26068781 C50.922313,5.22667916 51.0985204,5.11615268 51.1876869,4.92910507 C51.2386391,4.82707909 51.2641149,4.68041896 51.2641149,4.48912027 C51.2641149,4.09802071 51.1250597,3.81426524 50.8469451,3.63784533 C50.5688306,3.46142542 50.1707718,3.37321679 49.6527568,3.37321679 C49.0540675,3.37321679 48.6294714,3.53475549 48.378956,3.85783773 C48.2388372,4.03638318 48.1475491,4.30207182 48.1050888,4.65491164 L47.0350961,4.65491164 C47.0563262,3.81319738 47.3291292,3.2276196 47.8535132,2.89816074 C48.3778971,2.56870188 48.9861309,2.40397492 49.6782329,2.40397492 C50.4807314,2.40397492 51.1324863,2.55701158 51.6335172,2.86308949 C52.130302,3.1691674 52.3786906,3.64528146 52.3786906,4.29144594 L52.3786906,8.22580276 C52.3786906,8.34483306 52.4031049,8.44048097 52.4519342,8.51274937 C52.5007635,8.58501776 52.603728,8.62115142 52.7608309,8.62115142 C52.8117832,8.62115142 52.8691037,8.61796316 52.932794,8.61158653 C52.9964844,8.60520991 53.0644197,8.59564512 53.1366021,8.58289187 L53.1366021,9.43097851 C52.9582691,9.4819915 52.8223984,9.51387414 52.7289859,9.52662738 C52.6355733,9.53938063 52.5081945,9.54575716 52.3468456,9.54575716 C51.9519654,9.54575716 51.6653631,9.40547355 51.4870301,9.12490213 C51.3936175,8.97611426 51.3278051,8.76568885 51.2895909,8.49361959 C51.0560596,8.79969751 50.7206287,9.06538615 50.2832883,9.29069351 C49.8459478,9.51600086 49.3640313,9.62865284 48.8375243,9.62865284 C48.2048667,9.62865284 47.6879211,9.43629426 47.2866718,9.05157133 C46.8854225,8.6668484 46.6848009,8.18542057 46.6848009,7.60727341 C46.6848009,6.97386217 46.882238,6.48286955 47.2771183,6.13428082 C47.6719985,5.78569209 48.1900057,5.57101566 48.8311553,5.4902451 L50.6590595,5.26068781 Z M55.4485507,7.90059661 C55.7585104,8.39372213 56.2552878,8.64028119 56.9388977,8.64028119 C57.4696507,8.64028119 57.9059231,8.41178896 58.247728,7.95479763 C58.589533,7.4978063 58.7604329,6.84208672 58.7604329,5.98761922 C58.7604329,5.12464955 58.5842255,4.48593404 58.2318055,4.07145354 C57.8793855,3.65697303 57.4441746,3.44973589 56.9261597,3.44973589 C56.3487004,3.44973589 55.8805833,3.67078884 55.5217942,4.11290138 C55.1630052,4.55501392 54.9836134,5.20541973 54.9836134,6.06413831 C54.9836134,6.79532444 55.1385909,7.40747108 55.4485507,7.90059661 Z M58.0216284,2.7801938 C58.2254375,2.90772626 58.4568424,3.13090473 58.7158498,3.44973589 L58.7158498,-1.82592959e-14 L59.8176876,-1.82592959e-14 L59.8176876,9.39909556 L58.7859089,9.39909556 L58.7859089,8.44898346 C58.5184094,8.86984059 58.2020853,9.1737884 57.8369273,9.36083601 C57.4717692,9.54788362 57.0535421,9.64140603 56.5822334,9.64140603 C55.8221951,9.64140603 55.1640713,9.3215169 54.6078421,8.68172904 C54.051613,8.04194118 53.7735026,7.19067476 53.7735026,6.12790423 C53.7735026,5.13315101 54.0271987,4.27125704 54.5345986,3.54219646 C55.0419984,2.81313588 55.7669962,2.44861105 56.7096135,2.44861105 C57.2318745,2.44861105 57.6692084,2.55913753 58.0216284,2.7801938 Z M61.5118427,2.60164925 L62.6773705,2.60164925 L62.6773705,9.39909556 L61.5118427,9.39909556 L61.5118427,2.60164925 Z M61.5118427,0.0318829564 L62.6773705,0.0318829564 L62.6773705,1.33270758 L61.5118427,1.33270758 L61.5118427,0.0318829564 Z M64.6390238,0.663165494 L65.7981825,0.663165494 L65.7981825,2.56976629 L66.8872822,2.56976629 L66.8872822,3.50712521 L65.7981825,3.50712521 L65.7981825,7.96436252 C65.7981825,8.20242312 65.8788558,8.3618363 66.0402047,8.44260686 C66.1293712,8.48936877 66.2779798,8.51274937 66.486035,8.51274937 C66.5412333,8.51274937 66.6006767,8.51168661 66.6643671,8.50956107 C66.7280575,8.50743553 66.8023618,8.50212176 66.8872822,8.49361959 L66.8872822,9.39909556 C66.7556555,9.4373553 66.6187233,9.46498692 66.4764815,9.48199124 C66.3342397,9.49899557 66.1803236,9.50749761 66.0147287,9.50749761 C65.4797296,9.50749761 65.1167,9.37040227 64.9256289,9.09620747 C64.7345579,8.82201268 64.6390238,8.46598989 64.6390238,8.02812843 L64.6390238,3.50712521 L63.7155181,3.50712521 L63.7155181,2.56976629 L64.6390238,2.56976629 L64.6390238,0.663165494 Z M68.033703,2.60164925 L69.1992308,2.60164925 L69.1992308,9.39909556 L68.033703,9.39909556 L68.033703,2.60164925 Z M68.033703,0.0318829564 L69.1992308,0.0318829564 L69.1992308,1.33270758 L68.033703,1.33270758 L68.033703,0.0318829564 Z M75.2020172,7.79538285 C75.4843778,7.21936122 75.625556,6.57852021 75.625556,5.87284058 C75.625556,5.23517826 75.523653,4.71655402 75.3198438,4.3169523 C74.997146,3.68779215 74.4409252,3.37321679 73.6511647,3.37321679 C72.9505708,3.37321679 72.4410555,3.64103095 72.1226037,4.17666729 C71.8041519,4.71230364 71.6449284,5.35845843 71.6449284,6.11515104 C71.6449284,6.84208609 71.8041519,7.4478562 72.1226037,7.93247956 C72.4410555,8.41710292 72.9463248,8.65941097 73.6384267,8.65941097 C74.398465,8.65941097 74.9196566,8.37140448 75.2020172,7.79538285 Z M75.9121612,3.25206156 C76.5193427,3.83871089 76.8229288,4.70166761 76.8229288,5.84095762 C76.8229288,6.94198789 76.5554333,7.85170581 76.0204343,8.57013869 C75.4854353,9.28857157 74.65535,9.64778262 73.5301536,9.64778262 C72.5917823,9.64778262 71.8466163,9.330019 71.2946332,8.69448222 C70.74265,8.05894544 70.4666626,7.20555351 70.4666626,6.13428082 C70.4666626,4.98648865 70.7575109,4.0725197 71.3392162,3.39234656 C71.9209215,2.71217343 72.7021782,2.37209196 73.6830097,2.37209196 C74.5619367,2.37209196 75.3049798,2.66541222 75.9121612,3.25206156 Z M78.1858957,2.56976629 L79.2749954,2.56976629 L79.2749954,3.53900816 C79.5976933,3.13940645 79.9394931,2.85246271 80.3004051,2.67816834 C80.6613172,2.50387397 81.0625604,2.4167281 81.5041469,2.4167281 C82.4722404,2.4167281 83.1261183,2.75468406 83.4658002,3.43060611 C83.6526253,3.80045026 83.7460364,4.32970204 83.7460364,5.01837734 L83.7460364,9.39909556 L82.5805086,9.39909556 L82.5805086,5.09489644 C82.5805086,4.67829039 82.5189422,4.34245994 82.3958075,4.08739502 C82.1919983,3.6622868 81.8225998,3.44973589 81.2876008,3.44973589 C81.0158552,3.44973589 80.7929423,3.47736751 80.6188553,3.53263157 C80.3046495,3.62615538 80.0286621,3.81320019 79.7908848,4.09377161 C79.5998137,4.31907896 79.4756194,4.55182221 79.418298,4.79200835 C79.3609767,5.03219449 79.3323165,5.37546422 79.3323165,5.82182785 L79.3323165,9.39909556 L78.1858957,9.39909556 L78.1858957,2.56976629 Z" id="tspan58"></path>
            </g>
        </g>
    </g>
</svg>