<?xml version="1.0" encoding="UTF-8"?>
<svg width="171px" height="46px" viewBox="0 0 171 46" version="1.1" xmlns="http://www.w3.org/2000/svg" xmlns:xlink="http://www.w3.org/1999/xlink">
    <!-- Generator: Sketch 43.1 (39012) - http://www.bohemiancoding.com/sketch -->
    <title>bornhack-2017-logo-small</title>
    <desc>Created with Sketch.</desc>
    <defs>
        <polygon id="path-1" points="2.94080006e-15 43 171 43 171 0 2.94080006e-15 0"></polygon>
    </defs>
    <g id="Page-1" stroke="none" stroke-width="1" fill="none" fill-rule="evenodd">
        <g id="bornhack-2017-logo-small" transform="translate(85.500000, 23.000000) scale(-1, 1) rotate(-180.000000) translate(-85.500000, -23.000000) ">
            <g id="bornhack" transform="translate(-0.000000, 3.000000)">
                <mask id="mask-2" fill="white">
                    <use xlink:href="#path-1"></use>
                </mask>
                <g id="path22"></g>
                <polygon id="path46-path" fill="#000000" mask="url(#mask-2)" points="153.407686 12.6771984 156.607613 12.6771984 156.607613 23.0550137 166.55202 12.6771984 170.287256 12.6771984 161.130417 22.2119455 170.555406 36.0122632 166.709931 36.0122632 159.034871 24.3215858 156.607613 26.8842769 156.607613 36.0122632 153.407686 36.0122632"></polygon>
                <path d="M143.527268,36.4656094 C142.056581,36.4656094 140.727898,36.2046128 139.540226,35.6836045 C138.363477,35.1625962 137.355545,34.3658179 136.514443,33.2922848 C135.685257,32.2295855 135.059644,30.9531644 134.63959,29.4640065 C134.229466,27.9630299 134.0249,26.2699992 134.0249,24.3839295 C134.0249,22.4978598 134.229466,20.8048291 134.63959,19.3048374 C135.059644,17.8038608 135.690223,16.5175908 136.530332,15.4440577 C137.370441,14.3705246 138.379366,13.5737463 139.556115,13.052738 C140.732863,12.5208959 142.056581,12.2549749 143.527268,12.2549749 C144.031731,12.2549749 144.51534,12.2864914 144.977102,12.3495246 C145.449787,12.400739 145.8758,12.4746059 146.253154,12.5681708 C146.631501,12.6617356 147.04659,12.7976508 147.498422,12.9739466 C147.950254,13.1413784 148.365343,13.328508 148.74369,13.5373053 L148.74369,16.7716932 C147.976073,16.1364373 147.140929,15.6518701 146.237265,15.3189763 C145.785434,15.1515445 145.334595,15.0264632 144.882763,14.9437322 C144.440862,14.8600163 143.984065,14.8186508 143.51138,14.8186508 C142.492524,14.8186508 141.593826,15.0166142 140.817271,15.4125411 C140.049654,15.808468 139.409145,16.4023584 138.893759,17.1942122 C137.86398,18.7779198 137.349587,21.1692395 137.349587,24.3681712 C137.349587,27.5572541 137.86398,29.9426644 138.893759,31.526372 C139.923538,33.1100796 141.473668,33.9019334 143.543157,33.9019334 C144.015842,33.9019334 144.472639,33.8605679 144.913547,33.7778369 C145.366372,33.6941211 145.817211,33.5690397 146.269043,33.4025928 C147.140929,33.079548 147.966142,32.5939958 148.74369,31.948891 L148.74369,35.1832789 C147.924435,35.6107224 147.094256,35.9337673 146.253154,36.1533983 C145.844023,36.2568121 145.402122,36.3356035 144.929436,36.3868179 C144.467674,36.4400021 143.999954,36.4656094 143.527268,36.4656094" id="path42" fill="#000000" fill-rule="nonzero" mask="url(#mask-2)"></path>
                <path d="M120.410069,36.027529 L124.270996,36.027529 L131.472498,12.6934491 L128.178595,12.6934491 L126.445746,18.7731923 L118.203542,18.7731923 L116.501477,12.6934491 L113.208567,12.6934491 L120.410069,36.027529 Z M125.689052,21.3043668 L122.332588,33.2452069 L118.976124,21.3043668 L125.689052,21.3043668 Z" id="path54" fill="#000000" fill-rule="nonzero" mask="url(#mask-2)"></path>
                <polygon id="path38" fill="#000000" fill-rule="nonzero" mask="url(#mask-2)" points="95.1637992 12.6771984 98.3633634 12.6771984 98.3633634 22.2424771 107.07726 22.2424771 107.07726 12.6771984 110.276825 12.6771984 110.276825 36.0122632 107.07726 36.0122632 107.07726 24.8997179 98.3633634 24.8997179 98.3633634 36.0122632 95.1637992 36.0122632"></polygon>
                <polygon id="path34" fill="#000000" fill-rule="nonzero" mask="url(#mask-2)" points="75.7806165 12.6771984 79.8143316 12.6771984 87.7576322 31.8855624 87.7576322 12.6771984 90.8300877 12.6771984 90.8300877 36.0122632 86.7963726 36.0122632 78.8540651 16.8029143 78.8540651 36.0122632 75.7806165 36.0122632"></polygon>
                <path d="M56.4290125,12.6771984 L62.9850408,12.6771984 C65.5689223,12.6771984 67.5500305,13.2553305 68.9253863,14.4125795 C69.6195189,14.995636 70.133912,15.7047588 70.4705514,16.5379781 C70.8171212,17.3711974 70.9899096,18.3147247 70.9899096,19.3665902 C70.9899096,20.1899606 70.8856407,20.9138568 70.675117,21.5392637 C70.4645932,22.1538368 70.1498005,22.7063616 69.729746,23.1958534 C68.8886439,24.1758217 67.6969999,24.7746365 66.1528278,24.9932827 C66.5728824,25.0976813 66.9611597,25.2542793 67.3186529,25.4620917 C67.6761461,25.6600551 67.9859736,25.8944596 68.2481353,26.1653051 C68.5420741,26.4676672 68.8578598,26.8951107 69.1935062,27.4476355 C69.540076,27.9893266 69.945235,28.7181472 70.406997,29.6350824 L73.6055683,36.0122632 L70.1865429,36.0122632 L67.3812142,30.1196497 C66.9720831,29.2549138 66.5828127,28.5566248 66.2153891,28.0247827 C65.8578959,27.4939255 65.5222495,27.1088324 65.2064639,26.8685186 C64.8807478,26.6183558 64.4974357,26.4361506 64.0565274,26.3219031 C63.6255494,26.2076555 63.1637874,26.1495468 62.6692551,26.1495468 L59.6285767,26.1495468 L59.6285767,36.0122632 L56.4290125,36.0122632 L56.4290125,12.6771984 Z M63.1111564,23.5553392 C64.6344747,23.5553392 65.7685226,23.2165361 66.5142932,22.5399148 C66.8827098,22.2060361 67.1607601,21.7785926 67.3504301,21.2575844 C67.5391071,20.737561 67.6334455,20.1377613 67.6334455,19.4611399 C67.6334455,18.7835337 67.5341419,18.183734 67.3335485,17.6627257 C67.1448715,17.1427023 66.8509326,16.6995005 66.4517319,16.3350902 C66.0733849,16.0012115 65.5957342,15.740215 65.0177869,15.5530853 C64.4507629,15.3649708 63.7725189,15.2723909 62.9850408,15.2723909 L59.6285767,15.2723909 L59.6285767,23.5553392 L63.1111564,23.5553392 L63.1111564,23.5553392 Z" id="path30" fill="#000000" fill-rule="nonzero" mask="url(#mask-2)"></path>
                <polygon id="path26" stroke="#000000" stroke-width="2.17500001" stroke-linecap="square" mask="url(#mask-2)" points="24.9160852 40.8226766 24.9160852 39.7097477 27.074947 38.3387769 28.1116773 35.169392 29.0610204 34.8276342 29.5793855 35.0837063 30.6161158 34.1421488 31.5654589 34.2278345 32.3430067 32.5998067 33.1205544 32.5998067 35.7977813 31.4011922 36.2297523 30.8013924 36.6617233 30.8870781 38.2158257 31.6582492 38.7341909 31.1441351 39.7699281 28.6602355 41.8423957 26.947507 42.7063376 26.8618213 46.2475065 24.4636074 48.5791567 23.521065 49.4430986 23.778122 51.3427778 21.9797077 50.997201 21.2942224 51.1699894 21.0371654 50.3060475 20.2659943 50.7380185 18.8103228 50.4788359 18.5532657 51.0835952 17.0975942 51.1699894 15.8979948 50.2196533 14.7850659 50.2196533 13.5854665 49.2703102 12.7286098 49.2703102 12.0431244 48.4927625 11.1015669 48.7519451 10.2447102 49.0975218 9.13178134 49.2703102 8.6176673 46.5066891 5.27691096 45.7291414 4.67711126 44.6070099 5.36259664 42.7927318 5.53396798 42.0161771 5.96239635 38.3022199 6.81925307 36.4025407 8.10355327 35.7977813 7.93218192 34.5882626 9.13178134 30.7889042 10.5017672 30.6161158 11.0158812 29.4065971 10.8445099 26.9885528 12.2154807 25.8664213 11.7870523 23.1028002 13.5854665 22.3252524 14.9554524 21.4613105 14.9554524 20.3391791 16.2407375 20.2527849 17.0119085 19.5616313 17.3536663 20.0799965 18.6389514 20.1663907 20.0089373 20.6847558 23.4353793 19.6480255 27.1178934 20.5119674 31.6582492 22.8436176 36.8831054 23.1891944 39.8801342"></polygon>
                <path d="M0.249252211,36.027529 L7.21441161,36.027529 C9.60961613,36.027529 11.4636156,35.5124301 12.7774032,34.4802625 C14.0802673,33.4490797 14.7307064,31.985529 14.7307064,30.0886255 C14.7307064,29.35882 14.6423261,28.7137152 14.4635795,28.1503565 C14.2848329,27.5978317 14.0326016,27.1240982 13.7068855,26.7281713 C13.3702461,26.3322444 12.9452264,25.9983658 12.4308334,25.7275203 C11.9154473,25.4675086 11.3067158,25.2853034 10.6026528,25.1809048 C12.1577483,24.9415758 13.3702461,24.2905617 14.2431254,23.2268775 C14.6731103,22.6960203 14.9998193,22.0863716 15.2202735,21.3989165 C15.4407276,20.7114613 15.5509547,19.9402903 15.5509547,19.0854033 C15.5509547,16.9806874 14.8518569,15.3920554 13.4546542,14.3185222 C12.0465282,13.2351402 9.96710934,12.6934491 7.21441161,12.6934491 L0.249252211,12.6934491 L0.249252211,36.027529 Z M7.1518503,26.400202 C7.94925877,26.400202 8.61657943,26.4730841 9.15281925,26.6188482 C9.69898943,26.7646124 10.1458559,26.9891679 10.4924258,27.2905451 C11.174642,27.8745865 11.5162466,28.7964462 11.5162466,30.057109 C11.5162466,30.6825159 11.4328315,31.2035242 11.2640153,31.6201338 C11.0961921,32.0475773 10.8439607,32.3913049 10.5083143,32.6523015 C9.82510509,33.1733097 8.70595274,33.4333214 7.1518503,33.4333214 L3.44782342,33.4333214 L3.44782342,26.400202 L7.1518503,26.400202 L7.1518503,26.400202 Z M7.21441161,15.2876567 C9.05252254,15.2876567 10.3712753,15.6107016 11.1696768,16.2567912 C11.9581479,16.8920471 12.3523835,17.9448975 12.3523835,19.4133726 C12.3523835,20.935032 11.9372942,22.0548551 11.1071155,22.7738268 C10.2660134,23.4829496 8.96910746,23.837511 7.21441161,23.837511 L3.44782342,23.837511 L3.44782342,15.2876567 L7.21441161,15.2876567 L7.21441161,15.2876567 Z" id="path50" fill="#000000" fill-rule="nonzero" mask="url(#mask-2)"></path>
            </g>
            <path d="M56.4000015,1.2443358 L58.2193375,1.2443358 L59.9578141,6.36542962 L61.7097672,1.2443358 L63.5358415,1.2443358 L63.5358415,11.3045898 L62.2757829,11.3045898 L62.2757829,2.41679675 L60.4834,7.71982417 L59.452443,7.71982417 L57.6533219,2.41679675 L57.6533219,11.3045898 L56.4000015,11.3045898 L56.4000015,1.2443358 Z M67.5855486,11.5 C66.803904,11.5 66.1862344,11.2821311 65.7325212,10.8463867 C65.5168951,10.639745 65.3484398,10.3960463 65.2271501,10.1152832 C65.1058604,9.83452006 65.0452165,9.49648632 65.0452165,9.10117184 C65.0452165,8.27011299 65.3282215,7.6344748 65.8942399,7.19423822 C66.451274,6.75849385 67.2778282,6.54062493 68.3739275,6.54062493 L70.038283,6.54062493 L70.038283,6.34521477 C70.038283,6.05771333 70.0000998,5.8016612 69.9237322,5.5770507 C69.8473646,5.3524402 69.732815,5.17050842 69.5800798,5.03124991 C69.4318369,4.89648361 69.2364287,4.7954104 68.9938494,4.72802725 C68.75127,4.6606441 68.468265,4.62695303 68.1448259,4.62695303 C67.718066,4.62695303 67.2890663,4.68759696 66.8578142,4.80888663 C66.4220698,4.9301763 66.0020545,5.10761593 65.5977556,5.34121085 L65.5977556,4.10136709 C65.7864284,4.02949172 65.995313,3.95761744 66.2244157,3.88574208 C66.4535184,3.81386672 66.6848638,3.7532228 66.9184587,3.70380849 C67.3272498,3.6184565 67.7382809,3.57578114 68.1515642,3.57578114 C68.4705111,3.57578114 68.7602543,3.59936489 69.0208025,3.64653309 C69.2813507,3.6937013 69.5239264,3.76445255 69.7485369,3.85878896 C69.9551785,3.94863316 70.1517098,4.06205976 70.3381365,4.19907216 C70.5245632,4.33608457 70.6829112,4.4944326 70.8131853,4.674121 C70.9075217,4.80439509 70.9838882,4.94140544 71.0422869,5.08515616 C71.1006856,5.22890688 71.145607,5.37040938 71.1770525,5.50966789 C71.2489279,5.83759922 71.284865,6.33398098 71.284865,6.99882806 L71.284865,8.54189449 C71.2938494,8.80244267 71.3005876,9.03154195 71.3050799,9.22919919 C71.3095721,9.42685643 71.3230485,9.61103428 71.3455095,9.78173826 C71.3679706,9.97041108 71.3938004,10.1478507 71.4229998,10.3140625 C71.4521991,10.4802743 71.478029,10.6060542 71.50049,10.6914062 C71.5319355,10.8306647 71.5678726,10.9620599 71.6083025,11.0855957 C71.6487324,11.2091315 71.6734392,11.2821288 71.6824236,11.3045898 L70.4358416,11.3045898 C70.4133805,11.2506833 70.3853046,11.1709478 70.351613,11.0653809 C70.3179215,10.9598139 70.2853534,10.8441412 70.253908,10.7183594 C70.2314469,10.6195307 70.2101092,10.5195806 70.1898943,10.4185058 C70.1696793,10.3174311 70.1550799,10.2309574 70.1460955,10.159082 C70.0158214,10.3836925 69.8484891,10.5835929 69.6440935,10.7587891 C69.4396979,10.9339852 69.2386746,11.0732417 69.0410173,11.1765625 C68.8253912,11.2888677 68.597415,11.3708493 68.3570818,11.4225098 C68.1167485,11.4741702 67.8595734,11.5 67.5855486,11.5 Z M67.8416032,10.4623047 C68.519927,10.4623047 69.0544919,10.2242211 69.4453142,9.74804685 C69.8406287,9.26288817 70.038283,8.60928141 70.038283,7.78720698 L70.038283,7.51093744 L68.4682634,7.51093744 C67.7495098,7.51093744 67.2059605,7.63671744 66.8375993,7.8882812 C66.6444343,8.01855529 66.5040548,8.17914939 66.4164567,8.37006832 C66.3288586,8.56098724 66.2850603,8.78222527 66.2850603,9.03378903 C66.2850603,9.26738395 66.3209974,9.4706534 66.3928728,9.64360349 C66.4647481,9.81655358 66.5658213,9.96367125 66.6960954,10.0849609 C66.8263695,10.2017584 66.9847175,10.2938473 67.1711443,10.3612305 C67.357571,10.4286136 67.5810551,10.4623047 67.8416032,10.4623047 Z M73.9599627,0.819824071 L75.2402362,0.819824071 L75.2402362,6.89101556 L78.4948261,3.75771474 L80.0042011,3.75771474 L77.032619,6.60126946 L80.4691425,11.3045898 L78.9530292,11.3045898 L76.1633807,7.40986322 L75.2402362,8.27910152 L75.2402362,11.3045898 L73.9599627,11.3045898 L73.9599627,0.819824071 Z M85.3072285,11.5 C84.7277334,11.5 84.2077679,11.4112802 83.7473164,11.2338379 C83.2868648,11.0563956 82.8949254,10.7947283 82.5714863,10.4488281 C82.2480471,10.1029279 82.0021023,9.68628171 81.8336445,9.19887692 C81.6651866,8.71147213 81.5809589,8.16006162 81.5809589,7.54462885 C81.5809589,6.91122724 81.6663096,6.35532459 81.8370136,5.87690422 C82.0077176,5.39848385 82.2435551,4.99082191 82.5445331,4.65390616 C82.8724645,4.29003714 83.2565427,4.01938555 83.6967792,3.84194325 C84.1370158,3.66450096 84.6109369,3.57578114 85.1185566,3.57578114 C85.6216841,3.57578114 86.0630371,3.65888578 86.4426289,3.82509755 C86.8222206,3.99130932 87.1467779,4.23163895 87.4163105,4.54609365 C87.6858431,4.86054836 87.8913587,5.24125744 88.0328633,5.68823234 C88.1743679,6.13520724 88.2451192,6.64618846 88.2451192,7.22119135 L88.2451192,7.82763667 L82.8747089,7.82763667 L82.8747089,7.86806636 C82.8747089,8.69014079 83.0903318,9.32577897 83.5215839,9.77499998 C83.7282256,9.99062606 83.9786625,10.1568353 84.2729023,10.2736328 C84.5671421,10.3904303 84.9186522,10.4488281 85.3274433,10.4488281 C85.7362344,10.4488281 86.1517576,10.3859381 86.5740254,10.2601562 C87.0097698,10.1298821 87.4702144,9.93896608 87.9553731,9.68740232 L87.9553731,10.9205078 C87.7172859,11.0193364 87.4859406,11.1046871 87.2613301,11.1765625 C87.0367196,11.2484379 86.8143585,11.3090818 86.5942402,11.3584961 C86.3786141,11.4079104 86.1629913,11.4438475 85.9473652,11.4663086 C85.7317391,11.4887696 85.5183624,11.5 85.3072285,11.5 Z M87.0052754,6.85732415 C86.996291,6.47099409 86.9457544,6.13969857 86.8536641,5.86342766 C86.7615738,5.58715674 86.6414089,5.36367264 86.493166,5.19296866 C86.3314464,5.00429584 86.1315461,4.86279335 85.893459,4.76845694 C85.6553718,4.67412053 85.3880893,4.62695303 85.0916035,4.62695303 C84.4851551,4.62695303 83.9910194,4.82460731 83.6091816,5.21992179 C83.2228515,5.61972848 82.9937523,6.16776988 82.9218769,6.86406244 L87.0052754,6.85732415 Z M100.838967,2.38984362 L97.678713,2.38984362 L97.678713,1.2443358 L105.353615,1.2443358 L105.353615,2.38984362 L102.206838,2.38984362 L102.206838,11.3045898 L100.838967,11.3045898 L100.838967,2.38984362 Z M107.705276,3.75771474 L108.830569,3.75771474 L108.951858,5.23339835 C109.162992,4.69882536 109.481934,4.28779431 109.908694,4.00029287 C110.330961,3.71728363 110.836327,3.57578114 111.424807,3.57578114 C111.730277,3.57578114 112.017774,3.61396435 112.287307,3.69033192 C112.417581,3.7262696 112.547853,3.77456014 112.678127,3.83520497 C112.808401,3.89584981 112.931935,3.96660105 113.048733,4.04746083 L113.048733,5.31425773 C112.792677,5.10761607 112.523148,4.95712929 112.240139,4.86279288 C111.961622,4.76845647 111.658402,4.72128897 111.330471,4.72128897 C110.562303,4.72128897 109.973832,4.96386467 109.565041,5.44902335 C109.15625,5.92968983 108.951858,6.63046408 108.951858,7.55136713 L108.951858,11.3045898 L107.705276,11.3045898 L107.705276,3.75771474 Z M117.435354,11.5 C116.653709,11.5 116.03604,11.2821311 115.582327,10.8463867 C115.3667,10.639745 115.198245,10.3960463 115.076955,10.1152832 C114.955666,9.83452006 114.895022,9.49648632 114.895022,9.10117184 C114.895022,8.27011299 115.178027,7.6344748 115.744045,7.19423822 C116.301079,6.75849385 117.127634,6.54062493 118.223733,6.54062493 L119.888088,6.54062493 L119.888088,6.34521477 C119.888088,6.05771333 119.849905,5.8016612 119.773538,5.5770507 C119.69717,5.3524402 119.58262,5.17050842 119.429885,5.03124991 C119.281642,4.89648361 119.086234,4.7954104 118.843655,4.72802725 C118.601075,4.6606441 118.31807,4.62695303 117.994631,4.62695303 C117.567871,4.62695303 117.138872,4.68759696 116.70762,4.80888663 C116.271875,4.9301763 115.85186,5.10761593 115.447561,5.34121085 L115.447561,4.10136709 C115.636234,4.02949172 115.845118,3.95761744 116.074221,3.88574208 C116.303324,3.81386672 116.534669,3.7532228 116.768264,3.70380849 C117.177055,3.6184565 117.588086,3.57578114 118.00137,3.57578114 C118.320316,3.57578114 118.61006,3.59936489 118.870608,3.64653309 C119.131156,3.6937013 119.373732,3.76445255 119.598342,3.85878896 C119.804984,3.94863316 120.001515,4.06205976 120.187942,4.19907216 C120.374369,4.33608457 120.532717,4.4944326 120.662991,4.674121 C120.757327,4.80439509 120.833694,4.94140544 120.892092,5.08515616 C120.950491,5.22890688 120.995412,5.37040938 121.026858,5.50966789 C121.098733,5.83759922 121.13467,6.33398098 121.13467,6.99882806 L121.13467,8.54189449 C121.143655,8.80244267 121.150393,9.03154195 121.154885,9.22919919 C121.159377,9.42685643 121.172854,9.61103428 121.195315,9.78173826 C121.217776,9.97041108 121.243606,10.1478507 121.272805,10.3140625 C121.302005,10.4802743 121.327834,10.6060542 121.350295,10.6914062 C121.381741,10.8306647 121.417678,10.9620599 121.458108,11.0855957 C121.498538,11.2091315 121.523245,11.2821288 121.532229,11.3045898 L120.285647,11.3045898 C120.263186,11.2506833 120.23511,11.1709478 120.201418,11.0653809 C120.167727,10.9598139 120.135159,10.8441412 120.103713,10.7183594 C120.081252,10.6195307 120.059915,10.5195806 120.0397,10.4185058 C120.019485,10.3174311 120.004885,10.2309574 119.995901,10.159082 C119.865627,10.3836925 119.698294,10.5835929 119.493899,10.7587891 C119.289503,10.9339852 119.08848,11.0732417 118.890823,11.1765625 C118.675197,11.2888677 118.44722,11.3708493 118.206887,11.4225098 C117.966554,11.4741702 117.709379,11.5 117.435354,11.5 Z M117.691409,10.4623047 C118.369732,10.4623047 118.904297,10.2242211 119.29512,9.74804685 C119.690434,9.26288817 119.888088,8.60928141 119.888088,7.78720698 L119.888088,7.51093744 L118.318069,7.51093744 C117.599315,7.51093744 117.055766,7.63671744 116.687405,7.8882812 C116.49424,8.01855529 116.35386,8.17914939 116.266262,8.37006832 C116.178664,8.56098724 116.134866,8.78222527 116.134866,9.03378903 C116.134866,9.26738395 116.170803,9.4706534 116.242678,9.64360349 C116.314553,9.81655358 116.415627,9.96367125 116.545901,10.0849609 C116.676175,10.2017584 116.834523,10.2938473 117.02095,10.3612305 C117.207376,10.4286136 117.43086,10.4623047 117.691409,10.4623047 Z M126.053616,11.5 C125.577442,11.5 125.159672,11.405665 124.800295,11.2169922 C124.440919,11.0283194 124.139945,10.7677751 123.897366,10.4353515 C123.636818,10.080467 123.441409,9.65708251 123.311135,9.16518551 C123.180861,8.67328852 123.115725,8.12412408 123.115725,7.51767573 C123.115725,6.92021179 123.179738,6.3755395 123.307766,5.8836425 C123.435794,5.3917455 123.632325,4.97060713 123.897366,4.62021475 C124.162406,4.26982237 124.479102,4.00815506 124.847463,3.83520497 C125.215825,3.66225489 125.617871,3.57578114 126.053616,3.57578114 C126.511821,3.57578114 126.911622,3.67236221 127.25303,3.86552724 C127.59893,4.06318448 127.870705,4.34843554 128.068362,4.72128897 L128.068362,0.819824071 L129.308206,0.819824071 L129.308206,11.3045898 L128.189651,11.3045898 L128.068362,10.3544922 C127.965041,10.5341806 127.848245,10.6947747 127.717971,10.8362793 C127.587697,10.9777839 127.430472,11.1001948 127.246292,11.2035156 C126.904884,11.4011729 126.507329,11.5 126.053616,11.5 Z M126.228811,10.4488281 C126.835259,10.4488281 127.293458,10.2017603 127.60342,9.70761716 C127.913383,9.21796627 128.068362,8.49473131 128.068362,7.53789057 C128.068362,6.58104984 127.913383,5.8555688 127.60342,5.3614257 C127.45967,5.13232299 127.275492,4.95263728 127.050881,4.82236319 C126.826271,4.6920891 126.554496,4.62695303 126.235549,4.62695303 C125.633593,4.62695303 125.182133,4.8717748 124.881155,5.3614257 C124.575685,5.8555688 124.422952,6.58104984 124.422952,7.53789057 C124.422952,8.49473131 124.575685,9.22021234 124.881155,9.71435544 C125.038382,9.97041142 125.231544,10.1568353 125.460647,10.2736328 C125.68975,10.3904303 125.945802,10.4488281 126.228811,10.4488281 Z M134.119339,2.38984362 C133.984572,2.38984362 133.91719,2.32246148 133.91719,2.18769518 L133.91719,1.02197251 C133.91719,0.887206211 133.984572,0.819824071 134.119339,0.819824071 L135.089651,0.819824071 C135.224417,0.819824071 135.291799,0.887206211 135.291799,1.02197251 L135.291799,2.18769518 C135.291799,2.32246148 135.224417,2.38984362 135.089651,2.38984362 L134.119339,2.38984362 Z M136.383401,11.3584961 C136.024024,11.3584961 135.701713,11.3023443 135.416458,11.1900391 C135.131202,11.0777338 134.880765,10.895802 134.665139,10.6442383 C134.256348,10.168064 134.051956,9.49424261 134.051956,8.62275387 L134.051956,4.72802725 L132.401077,4.72802725 L132.401077,3.75771474 L135.291799,3.75771474 L135.291799,8.62275387 C135.291799,9.18428012 135.395119,9.60429546 135.60176,9.88281248 C135.709573,10.0310554 135.838723,10.1388668 135.989212,10.20625 C136.139701,10.2736331 136.311525,10.3073242 136.50469,10.3073242 L137.953421,10.3073242 L137.953421,11.3584961 L136.383401,11.3584961 Z M144.341311,11.331543 C143.415916,11.331543 142.760063,11.145119 142.373733,10.7722656 C141.991895,10.4039044 141.800979,9.761528 141.800979,8.84511715 L141.800979,4.72128897 L139.786233,4.72128897 L139.786233,3.75771474 L141.800979,3.75771474 L141.800979,1.7833983 L143.040823,1.2443358 L143.040823,3.75771474 L145.857425,3.75771474 L145.857425,4.72128897 L143.040823,4.72128897 L143.040823,8.84511715 C143.040823,9.39765898 143.146388,9.78622932 143.357522,10.0108398 C143.564164,10.2309581 143.93252,10.3410156 144.4626,10.3410156 L145.857425,10.3410156 L145.857425,11.331543 L144.341311,11.331543 Z M150.73594,2.38984362 C150.601174,2.38984362 150.533792,2.32246148 150.533792,2.18769518 L150.533792,1.02197251 C150.533792,0.887206211 150.601174,0.819824071 150.73594,0.819824071 L151.706253,0.819824071 C151.841019,0.819824071 151.908401,0.887206211 151.908401,1.02197251 L151.908401,2.18769518 C151.908401,2.32246148 151.841019,2.38984362 151.706253,2.38984362 L150.73594,2.38984362 Z M153.000003,11.3584961 C152.640626,11.3584961 152.318315,11.3023443 152.033059,11.1900391 C151.747804,11.0777338 151.497367,10.895802 151.281741,10.6442383 C150.87295,10.168064 150.668558,9.49424261 150.668558,8.62275387 L150.668558,4.72802725 L149.017679,4.72802725 L149.017679,3.75771474 L151.908401,3.75771474 L151.908401,8.62275387 C151.908401,9.18428012 152.011721,9.60429546 152.218362,9.88281248 C152.326175,10.0310554 152.455324,10.1388668 152.605813,10.20625 C152.756302,10.2736331 152.928127,10.3073242 153.121292,10.3073242 L154.570022,10.3073242 L154.570022,11.3584961 L153.000003,11.3584961 Z M159.670901,11.5 C159.154297,11.5 158.694976,11.4157723 158.292923,11.2473144 C157.89087,11.0788566 157.55059,10.8261736 157.272073,10.4892578 C156.989064,10.1388654 156.780179,9.71548097 156.645413,9.21909177 C156.510647,8.72270256 156.443265,8.16006169 156.443265,7.53115229 C156.443265,6.25536464 156.719531,5.27607755 157.272073,4.59326162 C157.824615,3.91493791 158.624216,3.57578114 159.670901,3.57578114 C160.209967,3.57578114 160.678272,3.66225489 161.075833,3.83520497 C161.473394,4.00815506 161.806935,4.26083808 162.076468,4.59326162 C162.62901,5.27607755 162.905276,6.25311857 162.905276,7.52441401 C162.905276,8.16680004 162.836771,8.73730216 162.699759,9.23593747 C162.562746,9.73457278 162.354985,10.152342 162.076468,10.4892578 C161.806935,10.8216813 161.471148,11.0732413 161.069095,11.2439453 C160.667042,11.4146493 160.200982,11.5 159.670901,11.5 Z M159.670901,10.4488281 C160.304303,10.4488281 160.782716,10.2017603 161.106155,9.70761716 C161.429594,9.21796627 161.591312,8.49473131 161.591312,7.53789057 C161.591312,6.58104984 161.429594,5.8555688 161.106155,5.3614257 C160.782716,4.8717748 160.304303,4.62695303 159.670901,4.62695303 C159.041992,4.62695303 158.565825,4.8717748 158.242386,5.3614257 C157.918947,5.8555688 157.757229,6.58104984 157.757229,7.53789057 C157.757229,8.49473131 157.918947,9.21796627 158.242386,9.70761716 C158.565825,10.2017603 159.041992,10.4488281 159.670901,10.4488281 Z M165.142386,3.75771474 L166.260941,3.75771474 L166.38223,4.889746 C166.60684,4.45400163 166.905568,4.12607522 167.278421,3.90595693 C167.651274,3.68583864 168.095997,3.57578114 168.612601,3.57578114 C169.0169,3.57578114 169.360549,3.64091721 169.643558,3.7711913 C169.926567,3.90146539 170.160158,4.08788931 170.344339,4.33046865 C170.721685,4.83808838 170.910355,5.6039987 170.910355,6.62822259 L170.910355,11.3045898 L169.663773,11.3045898 L169.663773,6.62822259 C169.663773,5.94989888 169.544731,5.45127104 169.306644,5.13232413 C169.068557,4.81337722 168.693463,4.65390616 168.181351,4.65390616 C167.884865,4.65390616 167.62769,4.7055658 167.409818,4.80888663 C167.191945,4.91220746 167.006644,5.06494031 166.853909,5.26708976 C166.539455,5.67588087 166.38223,6.26659763 166.38223,7.03925775 L166.38223,11.3045898 L165.142386,11.3045898 L165.142386,3.75771474 Z" id="Make-Tradition" fill="#000000" transform="translate(113.655178, 6.159912) scale(1, -1) translate(-113.655178, -6.159912) "></path>
        </g>
    </g>
</svg>