<?xml version="1.0" encoding="UTF-8" standalone="no"?>
<svg
   xmlns:osb="http://www.openswatchbook.org/uri/2009/osb"
   xmlns:dc="http://purl.org/dc/elements/1.1/"
   xmlns:cc="http://creativecommons.org/ns#"
   xmlns:rdf="http://www.w3.org/1999/02/22-rdf-syntax-ns#"
   xmlns:svg="http://www.w3.org/2000/svg"
   xmlns="http://www.w3.org/2000/svg"
   xmlns:sodipodi="http://sodipodi.sourceforge.net/DTD/sodipodi-0.dtd"
   xmlns:inkscape="http://www.inkscape.org/namespaces/inkscape"
   viewBox="0 0 190 49.999998"
   height="50"
   width="190"
   version="1.1"
   id="svg3336"
   inkscape:version="0.91 r13725"
   sodipodi:docname="bornhack-2017-logo-small.svg"
   inkscape:export-filename="/home/valberg/c/bornhack-website/src/static_src/img/bornhack-2016/logo/bornhack-2016-logo-small.png"
   inkscape:export-xdpi="180"
   inkscape:export-ydpi="180">
  <sodipodi:namedview
     pagecolor="#ffffff"
     bordercolor="#666666"
     borderopacity="1"
     objecttolerance="10"
     gridtolerance="10"
     guidetolerance="10"
     inkscape:pageopacity="0"
     inkscape:pageshadow="2"
     inkscape:window-width="1920"
     inkscape:window-height="877"
     id="namedview4341"
     showgrid="false"
     inkscape:zoom="1.63"
     inkscape:cx="104.92745"
     inkscape:cy="25"
     inkscape:window-x="0"
     inkscape:window-y="0"
     inkscape:window-maximized="1"
     inkscape:current-layer="svg3336" />
  <metadata
     id="metadata3342">
    <rdf:RDF>
      <cc:Work
         rdf:about="">
        <dc:format>image/svg+xml</dc:format>
        <dc:type
           rdf:resource="http://purl.org/dc/dcmitype/StillImage" />
        <dc:title></dc:title>
      </cc:Work>
    </rdf:RDF>
  </metadata>
  <defs
     id="defs3340">
    <linearGradient
       osb:paint="solid"
       id="linearGradient5690">
      <stop
         id="stop5692"
         offset="0"
         style="stop-color:#ffffff;stop-opacity:1;" />
    </linearGradient>
  </defs>
  <text
     id="text5110"
     y="-167.22212"
     x="-108.60311"
     style="font-style:normal;font-weight:normal;font-size:40px;line-height:125%;font-family:sans-serif;letter-spacing:0px;word-spacing:0px;fill:#000000;fill-opacity:1;stroke:none;stroke-width:1px;stroke-linecap:butt;stroke-linejoin:miter;stroke-opacity:1"
     xml:space="preserve"><tspan
       y="-167.22212"
       x="-108.60311"
       id="tspan5112" /></text>
  <path
     id="path3346-1-8-4-4"
     d="m 34.09087,2.59325 0,1.13057 2.17415,1.39147 1.0436,3.21775 0.95662,0.34789 0.52182,-0.2609 1.04358,0.9566 0.95663,-0.087 0.7827,1.65236 0.78271,0 2.69596,1.21752 0.43483,0.60877 0.43485,-0.087 1.56539,-0.78271 0.52181,0.5218 1.04359,2.52202 2.08722,1.73933 0.86965,0.087 3.56564,2.43505 2.3481,0.95664 0.86966,-0.2609 1.91326,1.82629 -0.34787,0.69574 0.17392,0.26091 -0.86966,0.78269 0.43484,1.47843 -0.2609,0.26091 0.60877,1.47842 0.087,1.21754 -0.95662,1.13056 0,1.21753 -0.95664,0.86969 0,0.69572 -0.78271,0.95662 0.26091,0.86968 0.34786,1.13057 0.17394,0.52178 -2.78292,3.3917 -0.7827,0.60878 -1.13057,-0.69574 -1.82628,-0.17395 -0.7827,-0.43481 -3.73959,-0.86966 -1.91326,-1.30451 -0.60878,0.17393 -1.2175,-1.21752 -3.82655,-1.39148 -0.17394,-0.5218 -1.21753,0.17394 -2.43504,-1.39145 -1.13058,0.43482 -2.78291,-1.82631 -0.78271,-1.39144 -0.86965,0 -1.13058,-1.30451 -0.087,-0.7827 -0.69575,-0.34786 0.52181,-1.30452 0.087,-1.39145 0.52178,-3.47867 -1.04361,-3.73957 0.86969,-4.60923 2.34809,-5.30496 0.34786,-3.04382 z"
     style="fill:#ffffff;fill-opacity:1;fill-rule:evenodd;stroke:#000000;stroke-width:1.74001431;stroke-linecap:square;stroke-linejoin:miter;stroke-miterlimit:3.79999995;stroke-dasharray:none;stroke-opacity:1"
     inkscape:connector-curvature="0" />
  <g
     id="flowRoot3420"
     style="font-style:normal;font-variant:normal;font-weight:normal;font-stretch:normal;font-size:32.5px;line-height:125%;font-family:Sans;-inkscape-font-specification:Hack;letter-spacing:0px;word-spacing:0px;fill:#000000;fill-opacity:1;stroke:none;stroke-width:1px;stroke-linecap:butt;stroke-linejoin:miter;stroke-opacity:1"
     transform="matrix(1,0,0,-1,495.87595,176.21222)">
    <path
       id="path3581"
       style="font-style:normal;font-variant:normal;font-weight:normal;font-stretch:normal;font-size:32.5px;font-family:Hack;-inkscape-font-specification:Hack"
       d="m -430.05103,145.04156 6.60157,0 q 3.90381,0 5.98266,1.76148 1.04737,0.88867 1.55518,2.1582 0.52368,1.26953 0.52368,2.87232 0,1.25366 -0.31738,2.20581 -0.31739,0.93628 -0.95215,1.68213 -1.26953,1.4917 -3.6023,1.82495 0.63477,0.15869 1.17432,0.47607 0.53955,0.30152 0.93628,0.71411 0.44434,0.46021 0.95215,1.30127 0.52368,0.8252 1.22192,2.22168 l 3.22144,6.47461 -3.44361,0 -2.8247,-5.98266 q -0.6189,-1.31714 -1.17432,-2.12647 -0.53955,-0.80933 -1.01562,-1.17432 -0.49195,-0.38086 -1.15845,-0.55542 -0.65064,-0.17456 -1.39649,-0.17456 l -3.06274,0 0,10.01343 -3.22144,0 0,-23.69263 z m 6.72852,11.04493 q 2.30103,0 3.42773,-1.0315 0.55542,-0.50781 0.84107,-1.30127 0.28564,-0.79345 0.28564,-1.82495 0,-1.03149 -0.30151,-1.82495 -0.28564,-0.79346 -0.88867,-1.34888 -0.57129,-0.50781 -1.44409,-0.79345 -0.85694,-0.28565 -2.04712,-0.28565 l -3.38013,0 0,8.41065 3.50708,0 z"
       inkscape:connector-curvature="0" />
    <path
       id="path3583"
       style="font-style:normal;font-variant:normal;font-weight:normal;font-stretch:normal;font-size:32.5px;font-family:Hack;-inkscape-font-specification:Hack"
       d="m -410.56372,145.04156 4.0625,0 7.99805,19.50318 0,-19.50318 3.09448,0 0,23.69263 -4.0625,0 -7.99805,-19.50317 0,19.50317 -3.09448,0 0,-23.69263 z"
       inkscape:connector-curvature="0" />
    <path
       id="path3585"
       style="font-style:normal;font-variant:normal;font-weight:normal;font-stretch:normal;font-size:32.5px;font-family:Hack;-inkscape-font-specification:Hack"
       d="m -391.04468,145.04156 3.22144,0 0,9.71192 8.77563,0 0,-9.71192 3.22144,0 0,23.69263 -3.22144,0 0,-11.28296 -8.77563,0 0,11.28296 -3.22144,0 0,-23.69263 z"
       inkscape:connector-curvature="0" />
    <path
       id="path3587"
       style="font-style:normal;font-variant:normal;font-weight:normal;font-stretch:normal;font-size:32.5px;font-family:Hack;-inkscape-font-specification:Hack"
       d="m -342.34229,169.1944 q -2.22167,0 -4.01489,-0.79346 -1.77734,-0.79346 -3.04687,-2.42798 -1.25366,-1.61865 -1.88843,-3.88794 -0.6189,-2.28515 -0.6189,-5.15747 0,-2.87231 0.6189,-5.15747 0.63477,-2.28516 1.9043,-3.91968 1.26953,-1.63452 3.04687,-2.42798 1.77735,-0.80932 3.99902,-0.80932 0.76172,0 1.45997,0.0952 0.71411,0.0793 1.2854,0.22217 0.57129,0.14282 1.25366,0.4126 0.68237,0.2539 1.25366,0.57129 l 0,3.28491 q -1.15845,-0.96802 -2.52319,-1.47583 -0.68238,-0.25391 -1.36475,-0.38086 -0.6665,-0.12695 -1.38061,-0.12695 -1.53931,0 -2.71363,0.60302 -1.15844,0.60303 -1.93603,1.80909 -1.55518,2.41211 -1.55518,7.28393 0,4.85596 1.55518,7.26807 1.55517,2.41211 4.68139,2.41211 0.71412,0 1.38062,-0.12696 0.68237,-0.12695 1.36475,-0.38085 1.31713,-0.49195 2.49145,-1.47584 l 0,3.28492 q -1.23779,0.65063 -2.50732,0.98388 -0.6189,0.1587 -1.33301,0.23804 -0.69824,0.0794 -1.41236,0.0794 z"
       inkscape:connector-curvature="0" />
    <path
       id="path3589"
       style="font-style:normal;font-variant:normal;font-weight:normal;font-stretch:normal;font-size:32.5px;font-family:Hack;-inkscape-font-specification:Hack"
       d="m -332.39233,145.04156 3.22143,0 0,10.53711 10.01343,-10.53711 3.76099,0 -9.21998,9.68018 9.48975,14.01245 -3.87207,0 -7.72827,-11.87012 -2.44385,2.60254 0,9.26758 -3.22143,0 0,-23.69263 z"
       inkscape:connector-curvature="0" />
  </g>
  <g
     id="text3469"
     style="font-style:normal;font-variant:normal;font-weight:normal;font-stretch:normal;font-size:32.5px;line-height:125%;font-family:Hack;-inkscape-font-specification:Hack;letter-spacing:0px;word-spacing:0px;fill:#000000;fill-opacity:1;stroke:none;stroke-width:1px;stroke-linecap:butt;stroke-linejoin:miter;stroke-opacity:1"
     transform="translate(495.87595,-197.59527)">
    <path
       id="path3592"
       d="m -486.62521,205.05743 7.01416,0 q 3.61816,0 5.6018,1.57105 1.96778,1.57104 1.96778,4.45923 0,1.11084 -0.26978,1.96777 -0.26977,0.84107 -0.76172,1.44409 -0.50781,0.60303 -1.2854,1.01563 -0.77759,0.39673 -1.84082,0.55542 2.34863,0.36499 3.66577,1.98364 0.65064,0.80933 0.98389,1.85669 0.33325,1.04736 0.33325,2.34863 0,3.20557 -2.11059,4.84009 -2.12647,1.65039 -6.28418,1.65039 l -7.01416,0 0,-23.69263 z m 6.95068,9.77539 q 1.20605,0 2.01538,-0.22216 0.8252,-0.22217 1.34888,-0.68238 1.03149,-0.88867 1.03149,-2.80883 0,-0.95215 -0.2539,-1.58692 -0.25391,-0.65063 -0.76172,-1.04736 -1.0315,-0.79346 -3.38013,-0.79346 l -3.72925,0 0,7.14111 3.72925,0 z m 0.0635,11.28296 q 2.7771,0 3.98315,-0.98388 1.19019,-0.96802 1.19019,-3.20557 0,-2.31689 -1.25367,-3.41186 -1.26953,-1.07911 -3.91967,-1.07911 l -3.79273,0 0,8.68042 3.79273,0 z"
       inkscape:connector-curvature="0" />
  </g>
  <g
     id="text3538"
     style="font-style:normal;font-variant:normal;font-weight:normal;font-stretch:normal;font-size:32.5px;line-height:125%;font-family:Hack;-inkscape-font-specification:Hack;letter-spacing:0px;word-spacing:0px;fill:#000000;fill-opacity:1;stroke:none;stroke-width:1px;stroke-linecap:butt;stroke-linejoin:miter;stroke-opacity:1"
     transform="translate(495.87595,-197.59527)">
    <path
       id="path3622"
       d="m -365.6217,205.05743 3.88794,0 7.25219,23.69263 -3.31665,0 -1.7456,-6.17309 -8.29956,0 -1.71387,6.17309 -3.31665,0 7.2522,-23.69263 z m 5.31616,14.94873 -3.38013,-12.12402 -3.38013,12.12402 6.76026,0 z"
       inkscape:connector-curvature="0" />
  </g>
  <g
     id="text3542"
     style="font-style:normal;font-weight:normal;font-size:40px;line-height:125%;font-family:Sans;letter-spacing:0px;word-spacing:0px;fill:#000000;fill-opacity:1;stroke:none;stroke-width:1px;stroke-linecap:butt;stroke-linejoin:miter;stroke-opacity:1"
     transform="translate(495.87595,-197.59527)" />
  <flowRoot
     xml:space="preserve"
     id="flowRoot4883"
     style="font-style:normal;font-weight:normal;font-size:40px;line-height:125%;font-family:sans-serif;letter-spacing:0px;word-spacing:0px;fill:#2b0000;fill-opacity:1;stroke:none;stroke-width:1px;stroke-linecap:butt;stroke-linejoin:miter;stroke-opacity:1"
     transform="matrix(1.0080329,0,0,1.0080329,73.543573,-52.770106)"><flowRegion
       id="flowRegion4885"><rect
         id="rect4887"
         width="367.64706"
         height="74.117645"
         x="-8.2352943"
         y="82.941177"
         style="letter-spacing:0px;fill:#2b0000" /></flowRegion><flowPara
       id="flowPara4889"
       style="font-style:normal;font-variant:normal;font-weight:normal;font-stretch:normal;font-size:13.75px;font-family:Hack;-inkscape-font-specification:Hack;letter-spacing:0px;fill:#2b0000">Make Tradition</flowPara></flowRoot></svg>
