<?xml version="1.0"?>
<svg width="350" height="400" xmlns="http://www.w3.org/2000/svg">
 <metadata id="metadata3342">image/svg+xml</metadata>

 <g>
  <title>background</title>
  <rect fill="none" id="canvas_background" height="402" width="582" y="-1" x="-1"/>
 </g>
 <g>
  <title>Layer 1</title>
  <text font-style="normal" font-weight="normal" font-size="40px" font-family="sans-serif" fill="#000000" stroke-width="1px" id="text5110" y="18.180925" x="-595.58606" xml:space="preserve"/>
  <g id="g5205">
   <path fill="#ffffff" fill-rule="evenodd" stroke="#000000" stroke-width="16.715706" stroke-linecap="square" stroke-miterlimit="3.8" d="m73.264343,25.708281l0,10.860949l20.886383,13.367321l10.025406,30.911953l9.190102,3.34182l5.01281,-2.506393l10.025391,9.190018l9.190002,-0.835434l7.519104,15.873703l7.519196,0l25.899109,11.696381l4.177399,5.84819l4.177292,-0.835396l15.038208,-7.519165l5.012802,5.012756l10.025391,24.228203l20.05101,16.709198l8.354599,0.835495l34.253799,23.3927l22.557281,9.190094l8.354523,-2.506393l18.380096,17.544601l-3.341797,6.683701l1.670898,2.506393l-8.354492,7.519104l4.177185,14.202805l-2.506287,2.506302l5.848175,14.20282l0.835419,11.696381l-9.190002,10.861023l0,11.696381l-9.190094,8.354614l0,6.683594l-7.519104,9.189972l2.506409,8.354675l3.341797,10.860901l1.670898,5.012695l-26.734619,32.582916l-7.519104,5.848206l-10.860992,-6.683716l-17.544495,-1.67099l-7.519104,-4.177216l-35.924789,-8.354492l-18.380112,-12.531891l-5.84819,1.670898l-11.696304,-11.696411l-36.760208,-13.367401l-1.670898,-5.012695l-11.696404,1.671021l-23.3927,-13.367279l-10.861,4.177216l-26.7346,-17.544617l-7.519089,-13.36731l-8.3545,0l-10.861002,-12.531891l-0.835409,-7.519104l-6.6838,-3.341812l5.012798,-12.531891l0.83551,-13.36731l5.012691,-33.418289l-10.0256,-35.924698l8.3547,-44.279259l22.557409,-50.962883l3.341789,-29.241043l16.709114,-9.19002z" id="path3346-1-8-4-4"/>
   <g id="g5747">
    <g transform="matrix(1.20496 0 0 1.20496 -2.07153 -51.5048)" id="g5708">
     <path fill="none" stroke="#000000" stroke-width="2.220683" stroke-miterlimit="4" id="path5989-3-1-0-2-5-3" d="m38.995354,212.399368c7.200798,0.207108 14.573803,-0.977402 21.61441,0.999695c6.425087,2.811905 6.8498,11.904114 5.345299,18.1241c-0.530899,3.48671 -8.825508,3.379501 -2.803997,4.695313c5.370396,2.294693 4.4519,9.256393 4.589497,14.320892c0.105804,8.612091 -3.563896,11.201508 -10.794506,11.853699c-5.819904,0.175018 -11.643696,0.15799 -17.465202,0.245209l-0.485798,-50.2388l0.000298,-0.000107zm12.272202,8.463608l0.108299,11.17099c5.951099,1.492798 5.562401,-12.554199 -0.108299,-11.17099zm0.183598,18.990891l0.136097,14.0569c5.065907,0.740906 3.8269,-5.350983 3.9109,-8.78299c0.271404,-3.353912 -0.350796,-5.758209 -4.046696,-5.273911l-0.000301,0z"/>
     <path fill="none" stroke="#000000" stroke-width="2.220683" stroke-miterlimit="4" id="path5991-3-3-0-8-1-5" d="m90.873749,242.002869c-0.397697,4.195404 -0.475395,8.487793 -1.601196,12.5625c-1.499191,4.657196 -5.8274,7.759216 -10.310699,8.170502c-5.202103,0.559692 -11.2174,-0.612305 -14.480499,-5.332001c-2.038002,-2.775513 -2.399597,-6.419006 -2.163498,-9.848785c0.357796,-7.53392 0.943394,-15.059509 1.5951,-22.573715c0.3041,-3.580002 0.847694,-7.408493 3.290695,-10.128204c3.835098,-4.502487 10.1558,-4.997696 15.346001,-3.661301c4.147003,0.995605 7.897301,4.212708 8.9907,8.719009c0.841797,3.810089 0.213303,7.784103 0.084999,11.656403c-0.241501,3.478989 -0.501099,6.957092 -0.752403,10.435593l0.000801,0zm-10.964195,-17.333893c0.017998,-1.889511 0.887505,-5.766907 -1.906006,-5.561111c-2.151894,0.738098 -1.566895,3.791504 -1.933594,5.666107c-0.601006,8.735504 -1.3377,17.463791 -1.840202,26.204788c-0.561302,1.897125 0.904602,4.418121 2.818207,2.984222c1.161995,-1.792725 0.888901,-4.190826 1.190704,-6.266602c0.557098,-7.675812 1.113899,-15.351517 1.670898,-23.027405l-0.000008,0z"/>
     <path fill="none" stroke="#000000" stroke-width="2.220683" stroke-miterlimit="4" id="path5993-3-5-1-9-5-3" d="m87.369652,211.963974c6.484398,0.013 12.994102,-0.4245 19.454002,0.3358c3.943794,0.345993 6.940697,4.082092 7.475296,8.139893c0.554199,3.816299 0.721199,7.8396 -0.282097,11.586411c-0.7621,2.680099 -3.600403,3.498596 -5.916306,3.733688c2.466705,0.540497 5.054802,1.782806 6.090607,4.430206c0.948799,2.553497 0.5896,5.401291 0.747993,8.092499c0.045006,4.541809 0.088005,9.083801 0.131302,13.625793c-3.773499,0.041016 -7.546799,0.080994 -11.320496,0.122101c-0.093002,-6.304596 -0.053001,-12.613495 -0.242203,-18.9151c0.245003,-2.209396 -1.218201,-4.1026 -3.375397,-3.696793c-0.644707,0.146301 -0.138702,1.515594 -0.286102,2.190491c0.066002,6.820419 0.131599,13.641098 0.197701,20.461594c-4.062805,0.044006 -8.1259,0.087006 -12.189003,0.131317c-0.162102,-16.746307 -0.323799,-33.492401 -0.485802,-50.238708l0.000504,0.000809zm12.2724,8.463593c0.034996,3.723709 0.070999,7.447296 0.108299,11.171005c2.054604,0.362595 3.995399,-1.028503 3.6437,-3.420105c-0.054001,-2.081802 0.208504,-4.231796 -0.347603,-6.252991c-0.508698,-1.449692 -2.189194,-1.481613 -3.404099,-1.498001l-0.000298,0.000092z"/>
     <path fill="none" stroke="#000000" stroke-width="2.220683" stroke-miterlimit="4" id="path5995-2-6-3-1-4-9" d="m138.018356,211.40657c0.161896,16.746399 0.32399,33.492493 0.485901,50.238907c-3.561295,0.037994 -7.122391,0.076996 -10.683693,0.116089c-2.187004,-7.59021 -4.374207,-15.180298 -6.5616,-22.770096c0.073997,7.612808 0.147095,15.225693 0.220894,22.838791c-3.396996,0.036011 -6.794197,0.074005 -10.191498,0.110107c-0.161797,-16.746506 -0.3237,-33.492706 -0.485703,-50.238998c3.397202,-0.037003 6.794403,-0.074005 10.191505,-0.110199c2.350296,7.515991 4.701096,15.031601 7.051598,22.547501c-0.072998,-7.540497 -0.145401,-15.081009 -0.218697,-22.621307c3.396996,-0.036987 6.794304,-0.07399 10.191399,-0.110199l-0.000107,-0.000595z"/>
     <path fill="none" stroke="#000000" stroke-width="2.220683" stroke-miterlimit="4" id="path5997-3-2-2-1-2-00" d="m170.030746,211.489563c0.162003,16.746399 0.3237,33.492599 0.485809,50.239105c-4.063202,0.044006 -8.126099,0.087982 -12.189209,0.132599c-0.068008,-7.033722 -0.136002,-14.067322 -0.20401,-21.1008c-1.215897,0.014999 -2.43219,0.024994 -3.647888,0.038986c0.067993,7.033707 0.136093,14.067215 0.203796,21.100998c-4.063004,0.044006 -8.126007,0.088013 -12.189209,0.131317c-0.161697,-16.746292 -0.323792,-33.492599 -0.485596,-50.238998c4.062897,-0.044006 8.126007,-0.087006 12.189102,-0.131302c0.057999,5.988998 0.115997,11.977905 0.173798,17.966904c1.216003,-0.014999 2.4319,-0.026001 3.647995,-0.039001c-0.056992,-5.989105 -0.115891,-11.977905 -0.173691,-17.966797c4.063095,-0.044006 8.125992,-0.087997 12.189102,-0.132904l0,-0.000107z"/>
     <path fill="none" stroke="#000000" stroke-width="2.220683" stroke-miterlimit="4" id="path5999-5-7-7-2-4-3" d="m189.585846,210.954468c2.487991,16.7211 4.975601,33.4422 7.463501,50.163391c-4.1595,0.046021 -8.319199,0.089996 -12.4785,0.13562c-0.23201,-3.007813 -0.463699,-6.015503 -0.695602,-9.023315c-1.457306,0.015015 -2.914597,0.031006 -4.371796,0.046997c-0.212311,3.012604 -0.4245,6.025421 -0.636505,9.037811c-4.207809,0.044983 -8.415695,0.09201 -12.623306,0.137085c1.903503,-16.768692 3.806702,-33.537384 5.710007,-50.305984c5.877396,-0.063995 11.754791,-0.126801 17.632294,-0.190903l-0.000092,-0.000702zm-6.144104,32.373001c-0.823395,-7.000198 -1.465103,-14.0233 -2.0569,-21.049698c-0.814499,7.017395 -1.649994,14.0383 -2.112198,21.094894c1.389694,-0.014999 2.779404,-0.029999 4.169098,-0.044998l0,-0.000198z"/>
     <path fill="none" stroke="#000000" stroke-width="2.221" stroke-miterlimit="4" id="path6001-3-8-8-0-0-6" d="m220.755554,232.833771c-4.063004,0.044006 -8.126099,0.087006 -12.189102,0.132599c-0.093002,-4.130493 0.052002,-8.274307 -0.278702,-12.392593c0.200104,-2.690903 -4.051102,-2.7314 -4.044891,-0.133102c-0.36731,4.138992 -0.080002,8.308197 -0.107605,12.461395c0.095001,5.938202 0.035004,11.882401 0.249893,17.816193c-0.392395,2.170807 1.7061,4.169403 3.505905,2.705017c1.177505,-1.749298 0.668396,-4.154907 0.813004,-6.187714c-0.020004,-2.015503 -0.03801,-4.030701 -0.059006,-6.045792c4.063202,-0.044006 8.126297,-0.087997 12.189209,-0.132599c-0.021011,4.615692 0.292892,9.410294 -1.201401,13.818008c-2.242599,4.964172 -7.552414,7.4953 -12.518112,7.493195c-4.704102,0.150787 -10.098999,-1.065521 -12.875,-5.544617c-2.072693,-3.827179 -2.00499,-8.441986 -2.185989,-12.731689c-0.026001,-6.952606 -0.25351,-13.9077 -0.067001,-20.858109c-0.095001,-4.334396 1.925293,-8.71579 5.501602,-10.873093c4.483994,-2.776703 10.099594,-2.927094 14.97789,-1.346298c3.711807,1.301895 7.052811,4.534592 7.595001,8.844696c0.783401,4.270401 0.618607,8.645706 0.693802,12.974594l0.000504,-0.000092z"/>
     <path fill="none" stroke="#000000" stroke-width="2.220683" stroke-miterlimit="4" id="path6003-5-9-9-4-4-6" d="m246.534256,210.761063c-2.252701,7.586197 -4.505508,15.172592 -6.758301,22.759094c2.636703,9.157501 5.273193,18.314896 7.910004,27.47261c-4.198303,0.04599 -8.396301,0.091003 -12.594604,0.135803c-1.7099,-7.160797 -3.420105,-14.321503 -5.13031,-21.482117c0.070007,7.178497 0.139313,14.356812 0.208206,21.535309c-4.063004,0.044006 -8.1259,0.087006 -12.188995,0.132599c-0.162003,-16.746201 -0.323898,-33.492508 -0.485809,-50.2388c4.063004,-0.044006 8.126099,-0.087997 12.189301,-0.132706c0.063004,6.50621 0.125412,13.012405 0.188507,19.518509c1.741898,-6.525604 3.483704,-13.0513 5.225494,-19.577011c3.812103,-0.039993 7.624298,-0.082993 11.436401,-0.123688l0.000107,0.000397z"/>
    </g>
   </g>
  </g>
 </g>
</svg>
